<mxfile host="app.diagrams.net" modified="2024-05-22T11:23:46.475Z" agent="Mozilla/5.0 (Windows NT 10.0; Win64; x64) AppleWebKit/537.36 (KHTML, like Gecko) Chrome/124.0.0.0 Safari/537.36" etag="wT-jRMt2fqxYHLlQRXv5" version="24.4.4" type="device">
  <diagram name="Page-1" id="LI03wRVbzCjM7W8S1Yru">
    <mxGraphModel dx="4882" dy="2260" grid="1" gridSize="10" guides="1" tooltips="1" connect="1" arrows="1" fold="1" page="1" pageScale="1" pageWidth="850" pageHeight="1100" math="0" shadow="0">
      <root>
        <mxCell id="0" />
        <mxCell id="1" parent="0" />
        <mxCell id="ICw0-tsvLoCsqjR65B9b-24" style="edgeStyle=orthogonalEdgeStyle;rounded=0;orthogonalLoop=1;jettySize=auto;html=1;exitX=1;exitY=0.5;exitDx=0;exitDy=0;entryX=0;entryY=0.5;entryDx=0;entryDy=0;endArrow=none;endFill=0;" edge="1" parent="1" source="ICw0-tsvLoCsqjR65B9b-1" target="ICw0-tsvLoCsqjR65B9b-23">
          <mxGeometry relative="1" as="geometry" />
        </mxCell>
        <mxCell id="ICw0-tsvLoCsqjR65B9b-89" style="edgeStyle=orthogonalEdgeStyle;rounded=0;orthogonalLoop=1;jettySize=auto;html=1;exitX=0.75;exitY=1;exitDx=0;exitDy=0;endArrow=none;endFill=0;" edge="1" parent="1" source="ICw0-tsvLoCsqjR65B9b-1" target="ICw0-tsvLoCsqjR65B9b-85">
          <mxGeometry relative="1" as="geometry" />
        </mxCell>
        <mxCell id="ICw0-tsvLoCsqjR65B9b-1" value="user_account" style="rounded=1;whiteSpace=wrap;html=1;" vertex="1" parent="1">
          <mxGeometry x="190" y="160" width="120" height="60" as="geometry" />
        </mxCell>
        <mxCell id="ICw0-tsvLoCsqjR65B9b-2" value="ph_number" style="ellipse;whiteSpace=wrap;html=1;" vertex="1" parent="1">
          <mxGeometry x="90" y="20" width="120" height="80" as="geometry" />
        </mxCell>
        <mxCell id="ICw0-tsvLoCsqjR65B9b-3" value="password" style="ellipse;whiteSpace=wrap;html=1;" vertex="1" parent="1">
          <mxGeometry x="210" y="10" width="120" height="80" as="geometry" />
        </mxCell>
        <mxCell id="ICw0-tsvLoCsqjR65B9b-4" value="name" style="ellipse;whiteSpace=wrap;html=1;" vertex="1" parent="1">
          <mxGeometry x="20" y="190" width="120" height="80" as="geometry" />
        </mxCell>
        <mxCell id="ICw0-tsvLoCsqjR65B9b-5" value="email" style="ellipse;whiteSpace=wrap;html=1;" vertex="1" parent="1">
          <mxGeometry x="350" y="20" width="120" height="80" as="geometry" />
        </mxCell>
        <mxCell id="ICw0-tsvLoCsqjR65B9b-6" value="age" style="ellipse;whiteSpace=wrap;html=1;" vertex="1" parent="1">
          <mxGeometry x="20" y="90" width="120" height="80" as="geometry" />
        </mxCell>
        <mxCell id="ICw0-tsvLoCsqjR65B9b-7" value="" style="endArrow=none;html=1;rounded=0;exitX=0;exitY=0.75;exitDx=0;exitDy=0;entryX=0.993;entryY=0.39;entryDx=0;entryDy=0;entryPerimeter=0;" edge="1" parent="1" source="ICw0-tsvLoCsqjR65B9b-1" target="ICw0-tsvLoCsqjR65B9b-4">
          <mxGeometry width="50" height="50" relative="1" as="geometry">
            <mxPoint x="290" y="240" as="sourcePoint" />
            <mxPoint x="340" y="190" as="targetPoint" />
          </mxGeometry>
        </mxCell>
        <mxCell id="ICw0-tsvLoCsqjR65B9b-8" value="" style="endArrow=none;html=1;rounded=0;entryX=0;entryY=0;entryDx=0;entryDy=0;exitX=1;exitY=0.5;exitDx=0;exitDy=0;" edge="1" parent="1" source="ICw0-tsvLoCsqjR65B9b-6" target="ICw0-tsvLoCsqjR65B9b-1">
          <mxGeometry width="50" height="50" relative="1" as="geometry">
            <mxPoint x="290" y="240" as="sourcePoint" />
            <mxPoint x="340" y="190" as="targetPoint" />
          </mxGeometry>
        </mxCell>
        <mxCell id="ICw0-tsvLoCsqjR65B9b-9" value="" style="endArrow=none;html=1;rounded=0;entryX=0.5;entryY=0;entryDx=0;entryDy=0;exitX=0.5;exitY=1;exitDx=0;exitDy=0;" edge="1" parent="1" source="ICw0-tsvLoCsqjR65B9b-2" target="ICw0-tsvLoCsqjR65B9b-1">
          <mxGeometry width="50" height="50" relative="1" as="geometry">
            <mxPoint x="290" y="240" as="sourcePoint" />
            <mxPoint x="340" y="190" as="targetPoint" />
          </mxGeometry>
        </mxCell>
        <mxCell id="ICw0-tsvLoCsqjR65B9b-10" value="" style="endArrow=none;html=1;rounded=0;entryX=0;entryY=1;entryDx=0;entryDy=0;exitX=1;exitY=0;exitDx=0;exitDy=0;" edge="1" parent="1" source="ICw0-tsvLoCsqjR65B9b-1" target="ICw0-tsvLoCsqjR65B9b-3">
          <mxGeometry width="50" height="50" relative="1" as="geometry">
            <mxPoint x="290" y="240" as="sourcePoint" />
            <mxPoint x="340" y="190" as="targetPoint" />
          </mxGeometry>
        </mxCell>
        <mxCell id="ICw0-tsvLoCsqjR65B9b-11" value="" style="endArrow=none;html=1;rounded=0;exitX=1;exitY=0.5;exitDx=0;exitDy=0;entryX=0;entryY=0.5;entryDx=0;entryDy=0;" edge="1" parent="1" source="ICw0-tsvLoCsqjR65B9b-1" target="ICw0-tsvLoCsqjR65B9b-5">
          <mxGeometry width="50" height="50" relative="1" as="geometry">
            <mxPoint x="290" y="240" as="sourcePoint" />
            <mxPoint x="340" y="190" as="targetPoint" />
          </mxGeometry>
        </mxCell>
        <mxCell id="ICw0-tsvLoCsqjR65B9b-12" value="&lt;u&gt;user_id&lt;/u&gt;" style="ellipse;whiteSpace=wrap;html=1;" vertex="1" parent="1">
          <mxGeometry x="30" y="290" width="70" height="50" as="geometry" />
        </mxCell>
        <mxCell id="ICw0-tsvLoCsqjR65B9b-13" value="" style="endArrow=none;html=1;rounded=0;entryX=0.25;entryY=1;entryDx=0;entryDy=0;exitX=0.5;exitY=0;exitDx=0;exitDy=0;" edge="1" parent="1" source="ICw0-tsvLoCsqjR65B9b-12" target="ICw0-tsvLoCsqjR65B9b-1">
          <mxGeometry width="50" height="50" relative="1" as="geometry">
            <mxPoint x="390" y="350" as="sourcePoint" />
            <mxPoint x="440" y="300" as="targetPoint" />
          </mxGeometry>
        </mxCell>
        <mxCell id="ICw0-tsvLoCsqjR65B9b-45" style="edgeStyle=orthogonalEdgeStyle;rounded=0;orthogonalLoop=1;jettySize=auto;html=1;exitX=0.5;exitY=0;exitDx=0;exitDy=0;endArrow=none;endFill=0;" edge="1" parent="1" source="ICw0-tsvLoCsqjR65B9b-14">
          <mxGeometry relative="1" as="geometry">
            <mxPoint x="80" y="395" as="targetPoint" />
          </mxGeometry>
        </mxCell>
        <mxCell id="ICw0-tsvLoCsqjR65B9b-69" style="edgeStyle=orthogonalEdgeStyle;rounded=0;orthogonalLoop=1;jettySize=auto;html=1;exitX=1;exitY=0.5;exitDx=0;exitDy=0;entryX=0;entryY=0.5;entryDx=0;entryDy=0;endArrow=none;endFill=0;" edge="1" parent="1" source="ICw0-tsvLoCsqjR65B9b-23" target="ICw0-tsvLoCsqjR65B9b-68">
          <mxGeometry relative="1" as="geometry" />
        </mxCell>
        <mxCell id="ICw0-tsvLoCsqjR65B9b-23" value="has" style="shape=rhombus;double=1;perimeter=rhombusPerimeter;whiteSpace=wrap;html=1;align=center;" vertex="1" parent="1">
          <mxGeometry x="400" y="160" width="120" height="60" as="geometry" />
        </mxCell>
        <mxCell id="ICw0-tsvLoCsqjR65B9b-30" style="edgeStyle=orthogonalEdgeStyle;rounded=0;orthogonalLoop=1;jettySize=auto;html=1;exitX=0;exitY=0.5;exitDx=0;exitDy=0;endArrow=none;endFill=0;" edge="1" parent="1" source="ICw0-tsvLoCsqjR65B9b-27" target="ICw0-tsvLoCsqjR65B9b-1">
          <mxGeometry relative="1" as="geometry" />
        </mxCell>
        <mxCell id="ICw0-tsvLoCsqjR65B9b-27" value="" style="triangle;whiteSpace=wrap;html=1;rotation=90;" vertex="1" parent="1">
          <mxGeometry x="232.5" y="260" width="35" height="80" as="geometry" />
        </mxCell>
        <mxCell id="ICw0-tsvLoCsqjR65B9b-44" style="edgeStyle=orthogonalEdgeStyle;rounded=0;orthogonalLoop=1;jettySize=auto;html=1;exitX=0.5;exitY=0;exitDx=0;exitDy=0;" edge="1" parent="1" source="ICw0-tsvLoCsqjR65B9b-59" target="ICw0-tsvLoCsqjR65B9b-27">
          <mxGeometry relative="1" as="geometry">
            <mxPoint x="495" y="355" as="sourcePoint" />
          </mxGeometry>
        </mxCell>
        <mxCell id="ICw0-tsvLoCsqjR65B9b-40" style="edgeStyle=orthogonalEdgeStyle;rounded=0;orthogonalLoop=1;jettySize=auto;html=1;exitX=0.75;exitY=0;exitDx=0;exitDy=0;entryX=0.114;entryY=0.935;entryDx=0;entryDy=0;entryPerimeter=0;" edge="1" parent="1" source="ICw0-tsvLoCsqjR65B9b-58" target="ICw0-tsvLoCsqjR65B9b-27">
          <mxGeometry relative="1" as="geometry">
            <mxPoint x="105" y="355" as="sourcePoint" />
          </mxGeometry>
        </mxCell>
        <mxCell id="ICw0-tsvLoCsqjR65B9b-41" style="edgeStyle=orthogonalEdgeStyle;rounded=0;orthogonalLoop=1;jettySize=auto;html=1;exitX=0.69;exitY=-0.05;exitDx=0;exitDy=0;entryX=0.672;entryY=0.698;entryDx=0;entryDy=0;entryPerimeter=0;exitPerimeter=0;" edge="1" parent="1" source="ICw0-tsvLoCsqjR65B9b-57" target="ICw0-tsvLoCsqjR65B9b-27">
          <mxGeometry relative="1" as="geometry">
            <mxPoint x="215" y="355" as="sourcePoint" />
          </mxGeometry>
        </mxCell>
        <mxCell id="ICw0-tsvLoCsqjR65B9b-42" style="edgeStyle=orthogonalEdgeStyle;rounded=0;orthogonalLoop=1;jettySize=auto;html=1;entryX=0.774;entryY=0.35;entryDx=0;entryDy=0;entryPerimeter=0;" edge="1" parent="1" source="ICw0-tsvLoCsqjR65B9b-61" target="ICw0-tsvLoCsqjR65B9b-27">
          <mxGeometry relative="1" as="geometry">
            <mxPoint x="275" y="355" as="sourcePoint" />
          </mxGeometry>
        </mxCell>
        <mxCell id="ICw0-tsvLoCsqjR65B9b-43" style="edgeStyle=orthogonalEdgeStyle;rounded=0;orthogonalLoop=1;jettySize=auto;html=1;exitX=0.446;exitY=-0.068;exitDx=0;exitDy=0;entryX=0.181;entryY=0.046;entryDx=0;entryDy=0;entryPerimeter=0;exitPerimeter=0;" edge="1" parent="1" source="ICw0-tsvLoCsqjR65B9b-60">
          <mxGeometry relative="1" as="geometry">
            <mxPoint x="385" y="347.81" as="sourcePoint" />
            <mxPoint x="286.31999999999994" y="281.6449999999999" as="targetPoint" />
            <Array as="points">
              <mxPoint x="385" y="330" />
              <mxPoint x="286" y="330" />
            </Array>
          </mxGeometry>
        </mxCell>
        <mxCell id="ICw0-tsvLoCsqjR65B9b-55" style="edgeStyle=orthogonalEdgeStyle;rounded=0;orthogonalLoop=1;jettySize=auto;html=1;exitX=0.5;exitY=0;exitDx=0;exitDy=0;endArrow=none;endFill=0;" edge="1" parent="1" source="ICw0-tsvLoCsqjR65B9b-56" target="ICw0-tsvLoCsqjR65B9b-58">
          <mxGeometry relative="1" as="geometry" />
        </mxCell>
        <mxCell id="ICw0-tsvLoCsqjR65B9b-56" value="score" style="ellipse;whiteSpace=wrap;html=1;align=center;" vertex="1" parent="1">
          <mxGeometry x="10" y="465" width="100" height="40" as="geometry" />
        </mxCell>
        <mxCell id="ICw0-tsvLoCsqjR65B9b-57" value="hotel_admin" style="rounded=1;arcSize=10;whiteSpace=wrap;html=1;align=center;" vertex="1" parent="1">
          <mxGeometry x="120" y="380" width="100" height="40" as="geometry" />
        </mxCell>
        <mxCell id="ICw0-tsvLoCsqjR65B9b-58" value="cutomer" style="rounded=1;arcSize=10;whiteSpace=wrap;html=1;align=center;" vertex="1" parent="1">
          <mxGeometry x="10" y="380" width="100" height="40" as="geometry" />
        </mxCell>
        <mxCell id="ICw0-tsvLoCsqjR65B9b-59" value="marketing" style="rounded=1;arcSize=10;whiteSpace=wrap;html=1;align=center;" vertex="1" parent="1">
          <mxGeometry x="450" y="380" width="100" height="40" as="geometry" />
        </mxCell>
        <mxCell id="ICw0-tsvLoCsqjR65B9b-60" value="support" style="rounded=1;arcSize=10;whiteSpace=wrap;html=1;align=center;" vertex="1" parent="1">
          <mxGeometry x="340" y="380" width="100" height="40" as="geometry" />
        </mxCell>
        <mxCell id="ICw0-tsvLoCsqjR65B9b-61" value="TR_admin" style="rounded=1;arcSize=10;whiteSpace=wrap;html=1;align=center;" vertex="1" parent="1">
          <mxGeometry x="230" y="380" width="100" height="40" as="geometry" />
        </mxCell>
        <mxCell id="ICw0-tsvLoCsqjR65B9b-63" value="wallet" style="rounded=1;whiteSpace=wrap;html=1;" vertex="1" parent="1">
          <mxGeometry x="650" y="170" width="120" height="60" as="geometry" />
        </mxCell>
        <mxCell id="ICw0-tsvLoCsqjR65B9b-64" value="credit" style="ellipse;whiteSpace=wrap;html=1;" vertex="1" parent="1">
          <mxGeometry x="540" y="70" width="120" height="80" as="geometry" />
        </mxCell>
        <mxCell id="ICw0-tsvLoCsqjR65B9b-65" value="&lt;u&gt;user_id&lt;/u&gt;" style="ellipse;whiteSpace=wrap;html=1;" vertex="1" parent="1">
          <mxGeometry x="740" y="70" width="120" height="80" as="geometry" />
        </mxCell>
        <mxCell id="ICw0-tsvLoCsqjR65B9b-66" value="" style="endArrow=none;html=1;rounded=0;entryX=0;entryY=0;entryDx=0;entryDy=0;exitX=1;exitY=1;exitDx=0;exitDy=0;" edge="1" parent="1" source="ICw0-tsvLoCsqjR65B9b-64" target="ICw0-tsvLoCsqjR65B9b-63">
          <mxGeometry width="50" height="50" relative="1" as="geometry">
            <mxPoint x="480" y="190" as="sourcePoint" />
            <mxPoint x="530" y="140" as="targetPoint" />
          </mxGeometry>
        </mxCell>
        <mxCell id="ICw0-tsvLoCsqjR65B9b-67" value="" style="endArrow=none;html=1;rounded=0;entryX=1;entryY=0;entryDx=0;entryDy=0;exitX=0.31;exitY=0.945;exitDx=0;exitDy=0;exitPerimeter=0;" edge="1" parent="1" source="ICw0-tsvLoCsqjR65B9b-65" target="ICw0-tsvLoCsqjR65B9b-63">
          <mxGeometry width="50" height="50" relative="1" as="geometry">
            <mxPoint x="480" y="190" as="sourcePoint" />
            <mxPoint x="530" y="140" as="targetPoint" />
          </mxGeometry>
        </mxCell>
        <mxCell id="ICw0-tsvLoCsqjR65B9b-68" value="" style="rounded=1;whiteSpace=wrap;html=1;fillColor=none;" vertex="1" parent="1">
          <mxGeometry x="645" y="165" width="130" height="70" as="geometry" />
        </mxCell>
        <mxCell id="ICw0-tsvLoCsqjR65B9b-70" value="bank_transaction" style="rounded=1;whiteSpace=wrap;html=1;" vertex="1" parent="1">
          <mxGeometry x="930" y="320" width="120" height="60" as="geometry" />
        </mxCell>
        <mxCell id="ICw0-tsvLoCsqjR65B9b-71" value="amount" style="ellipse;whiteSpace=wrap;html=1;" vertex="1" parent="1">
          <mxGeometry x="960" y="450" width="120" height="80" as="geometry" />
        </mxCell>
        <mxCell id="ICw0-tsvLoCsqjR65B9b-72" value="" style="endArrow=none;html=1;rounded=0;exitX=0.75;exitY=1;exitDx=0;exitDy=0;entryX=0.5;entryY=0;entryDx=0;entryDy=0;" edge="1" parent="1" source="ICw0-tsvLoCsqjR65B9b-70" target="ICw0-tsvLoCsqjR65B9b-71">
          <mxGeometry width="50" height="50" relative="1" as="geometry">
            <mxPoint x="1160" y="270" as="sourcePoint" />
            <mxPoint x="1210" y="220" as="targetPoint" />
          </mxGeometry>
        </mxCell>
        <mxCell id="ICw0-tsvLoCsqjR65B9b-73" value="bank_name" style="ellipse;whiteSpace=wrap;html=1;" vertex="1" parent="1">
          <mxGeometry x="790" y="230" width="120" height="80" as="geometry" />
        </mxCell>
        <mxCell id="ICw0-tsvLoCsqjR65B9b-74" value="" style="endArrow=none;html=1;rounded=0;exitX=0.907;exitY=0.765;exitDx=0;exitDy=0;entryX=0;entryY=0.5;entryDx=0;entryDy=0;exitPerimeter=0;" edge="1" parent="1" source="ICw0-tsvLoCsqjR65B9b-73" target="ICw0-tsvLoCsqjR65B9b-70">
          <mxGeometry width="50" height="50" relative="1" as="geometry">
            <mxPoint x="1100" y="210" as="sourcePoint" />
            <mxPoint x="1150" y="160" as="targetPoint" />
          </mxGeometry>
        </mxCell>
        <mxCell id="ICw0-tsvLoCsqjR65B9b-75" value="&lt;u&gt;transaction_id&lt;/u&gt;" style="ellipse;whiteSpace=wrap;html=1;" vertex="1" parent="1">
          <mxGeometry x="1080" y="420" width="120" height="80" as="geometry" />
        </mxCell>
        <mxCell id="ICw0-tsvLoCsqjR65B9b-76" value="" style="endArrow=none;html=1;rounded=0;exitX=1;exitY=0.75;exitDx=0;exitDy=0;entryX=0;entryY=0;entryDx=0;entryDy=0;" edge="1" parent="1" source="ICw0-tsvLoCsqjR65B9b-70" target="ICw0-tsvLoCsqjR65B9b-75">
          <mxGeometry width="50" height="50" relative="1" as="geometry">
            <mxPoint x="1100" y="430" as="sourcePoint" />
            <mxPoint x="1150" y="380" as="targetPoint" />
          </mxGeometry>
        </mxCell>
        <mxCell id="ICw0-tsvLoCsqjR65B9b-77" value="bank_account" style="ellipse;whiteSpace=wrap;html=1;" vertex="1" parent="1">
          <mxGeometry x="1110" y="320" width="120" height="80" as="geometry" />
        </mxCell>
        <mxCell id="ICw0-tsvLoCsqjR65B9b-78" value="" style="endArrow=none;html=1;rounded=0;exitX=1;exitY=0.5;exitDx=0;exitDy=0;entryX=0;entryY=0.5;entryDx=0;entryDy=0;" edge="1" parent="1" source="ICw0-tsvLoCsqjR65B9b-70" target="ICw0-tsvLoCsqjR65B9b-77">
          <mxGeometry width="50" height="50" relative="1" as="geometry">
            <mxPoint x="1100" y="430" as="sourcePoint" />
            <mxPoint x="1150" y="380" as="targetPoint" />
          </mxGeometry>
        </mxCell>
        <mxCell id="ICw0-tsvLoCsqjR65B9b-79" value="state" style="ellipse;whiteSpace=wrap;html=1;" vertex="1" parent="1">
          <mxGeometry x="840" y="150" width="120" height="80" as="geometry" />
        </mxCell>
        <mxCell id="ICw0-tsvLoCsqjR65B9b-80" value="" style="endArrow=none;html=1;rounded=0;exitX=1;exitY=0.5;exitDx=0;exitDy=0;" edge="1" parent="1" source="ICw0-tsvLoCsqjR65B9b-79">
          <mxGeometry width="50" height="50" relative="1" as="geometry">
            <mxPoint x="1100" y="390" as="sourcePoint" />
            <mxPoint x="990" y="310" as="targetPoint" />
          </mxGeometry>
        </mxCell>
        <mxCell id="ICw0-tsvLoCsqjR65B9b-81" value="date" style="ellipse;whiteSpace=wrap;html=1;" vertex="1" parent="1">
          <mxGeometry x="1070" y="230" width="120" height="80" as="geometry" />
        </mxCell>
        <mxCell id="ICw0-tsvLoCsqjR65B9b-82" value="" style="endArrow=none;html=1;rounded=0;exitX=1;exitY=0;exitDx=0;exitDy=0;entryX=0;entryY=1;entryDx=0;entryDy=0;" edge="1" parent="1" source="ICw0-tsvLoCsqjR65B9b-70" target="ICw0-tsvLoCsqjR65B9b-81">
          <mxGeometry width="50" height="50" relative="1" as="geometry">
            <mxPoint x="1120" y="340" as="sourcePoint" />
            <mxPoint x="1170" y="290" as="targetPoint" />
          </mxGeometry>
        </mxCell>
        <mxCell id="ICw0-tsvLoCsqjR65B9b-83" value="type" style="ellipse;whiteSpace=wrap;html=1;" vertex="1" parent="1">
          <mxGeometry x="980" y="140" width="120" height="80" as="geometry" />
        </mxCell>
        <mxCell id="ICw0-tsvLoCsqjR65B9b-84" value="" style="endArrow=none;html=1;rounded=0;exitX=1;exitY=1;exitDx=0;exitDy=0;" edge="1" parent="1" source="ICw0-tsvLoCsqjR65B9b-83" target="ICw0-tsvLoCsqjR65B9b-70">
          <mxGeometry width="50" height="50" relative="1" as="geometry">
            <mxPoint x="1120" y="480" as="sourcePoint" />
            <mxPoint x="1170" y="430" as="targetPoint" />
          </mxGeometry>
        </mxCell>
        <mxCell id="ICw0-tsvLoCsqjR65B9b-85" value="does" style="shape=rhombus;perimeter=rhombusPerimeter;whiteSpace=wrap;html=1;align=center;" vertex="1" parent="1">
          <mxGeometry x="590" y="270" width="120" height="60" as="geometry" />
        </mxCell>
        <mxCell id="ICw0-tsvLoCsqjR65B9b-87" style="edgeStyle=orthogonalEdgeStyle;rounded=0;orthogonalLoop=1;jettySize=auto;html=1;exitX=1;exitY=0.5;exitDx=0;exitDy=0;entryX=0.02;entryY=0.617;entryDx=0;entryDy=0;entryPerimeter=0;endArrow=ERmany;endFill=0;" edge="1" parent="1" source="ICw0-tsvLoCsqjR65B9b-85" target="ICw0-tsvLoCsqjR65B9b-70">
          <mxGeometry relative="1" as="geometry" />
        </mxCell>
        <mxCell id="ICw0-tsvLoCsqjR65B9b-110" style="edgeStyle=orthogonalEdgeStyle;rounded=0;orthogonalLoop=1;jettySize=auto;html=1;exitX=1;exitY=0.5;exitDx=0;exitDy=0;entryX=0;entryY=0;entryDx=0;entryDy=0;endArrow=none;endFill=0;" edge="1" parent="1" source="ICw0-tsvLoCsqjR65B9b-91" target="ICw0-tsvLoCsqjR65B9b-94">
          <mxGeometry relative="1" as="geometry">
            <mxPoint x="130" y="870.0000000000001" as="targetPoint" />
          </mxGeometry>
        </mxCell>
        <mxCell id="ICw0-tsvLoCsqjR65B9b-91" value="&lt;u&gt;hotel_id&lt;/u&gt;" style="ellipse;whiteSpace=wrap;html=1;" vertex="1" parent="1">
          <mxGeometry x="30" y="800" width="90" height="40" as="geometry" />
        </mxCell>
        <mxCell id="ICw0-tsvLoCsqjR65B9b-93" style="edgeStyle=orthogonalEdgeStyle;rounded=0;orthogonalLoop=1;jettySize=auto;html=1;exitX=0.25;exitY=1;exitDx=0;exitDy=0;entryX=1;entryY=0;entryDx=0;entryDy=0;endArrow=none;endFill=0;" edge="1" parent="1" source="ICw0-tsvLoCsqjR65B9b-94" target="ICw0-tsvLoCsqjR65B9b-107">
          <mxGeometry relative="1" as="geometry" />
        </mxCell>
        <mxCell id="ICw0-tsvLoCsqjR65B9b-156" style="edgeStyle=orthogonalEdgeStyle;rounded=0;orthogonalLoop=1;jettySize=auto;html=1;exitX=1;exitY=0.5;exitDx=0;exitDy=0;entryX=0;entryY=0.5;entryDx=0;entryDy=0;" edge="1" parent="1" source="ICw0-tsvLoCsqjR65B9b-94" target="ICw0-tsvLoCsqjR65B9b-155">
          <mxGeometry relative="1" as="geometry" />
        </mxCell>
        <mxCell id="ICw0-tsvLoCsqjR65B9b-94" value="hotel" style="rounded=1;arcSize=10;whiteSpace=wrap;html=1;align=center;" vertex="1" parent="1">
          <mxGeometry x="180" y="860" width="100" height="40" as="geometry" />
        </mxCell>
        <mxCell id="ICw0-tsvLoCsqjR65B9b-95" value="" style="edgeStyle=orthogonalEdgeStyle;rounded=0;orthogonalLoop=1;jettySize=auto;html=1;endArrow=none;endFill=0;" edge="1" parent="1" source="ICw0-tsvLoCsqjR65B9b-96" target="ICw0-tsvLoCsqjR65B9b-94">
          <mxGeometry relative="1" as="geometry" />
        </mxCell>
        <mxCell id="ICw0-tsvLoCsqjR65B9b-96" value="type" style="ellipse;whiteSpace=wrap;html=1;align=center;" vertex="1" parent="1">
          <mxGeometry x="180" y="780" width="100" height="40" as="geometry" />
        </mxCell>
        <mxCell id="ICw0-tsvLoCsqjR65B9b-97" value="cancel_rules" style="ellipse;whiteSpace=wrap;html=1;align=center;" vertex="1" parent="1">
          <mxGeometry x="65" y="750" width="100" height="40" as="geometry" />
        </mxCell>
        <mxCell id="ICw0-tsvLoCsqjR65B9b-98" style="edgeStyle=orthogonalEdgeStyle;rounded=0;orthogonalLoop=1;jettySize=auto;html=1;exitX=0.25;exitY=0;exitDx=0;exitDy=0;entryX=0.969;entryY=0.712;entryDx=0;entryDy=0;entryPerimeter=0;endArrow=none;endFill=0;" edge="1" parent="1" source="ICw0-tsvLoCsqjR65B9b-94" target="ICw0-tsvLoCsqjR65B9b-97">
          <mxGeometry relative="1" as="geometry" />
        </mxCell>
        <mxCell id="ICw0-tsvLoCsqjR65B9b-99" style="edgeStyle=orthogonalEdgeStyle;rounded=0;orthogonalLoop=1;jettySize=auto;html=1;exitX=0;exitY=0.5;exitDx=0;exitDy=0;entryX=0.75;entryY=0;entryDx=0;entryDy=0;endArrow=none;endFill=0;" edge="1" parent="1" source="ICw0-tsvLoCsqjR65B9b-100" target="ICw0-tsvLoCsqjR65B9b-94">
          <mxGeometry relative="1" as="geometry" />
        </mxCell>
        <mxCell id="ICw0-tsvLoCsqjR65B9b-100" value="name" style="ellipse;whiteSpace=wrap;html=1;align=center;" vertex="1" parent="1">
          <mxGeometry x="215" y="700" width="100" height="40" as="geometry" />
        </mxCell>
        <mxCell id="ICw0-tsvLoCsqjR65B9b-101" value="" style="edgeStyle=orthogonalEdgeStyle;rounded=0;orthogonalLoop=1;jettySize=auto;html=1;endArrow=none;endFill=0;" edge="1" parent="1" source="ICw0-tsvLoCsqjR65B9b-102" target="ICw0-tsvLoCsqjR65B9b-94">
          <mxGeometry relative="1" as="geometry" />
        </mxCell>
        <mxCell id="ICw0-tsvLoCsqjR65B9b-102" value="address" style="ellipse;whiteSpace=wrap;html=1;align=center;" vertex="1" parent="1">
          <mxGeometry x="325" y="740" width="100" height="40" as="geometry" />
        </mxCell>
        <mxCell id="ICw0-tsvLoCsqjR65B9b-103" style="edgeStyle=orthogonalEdgeStyle;rounded=0;orthogonalLoop=1;jettySize=auto;html=1;exitX=0;exitY=0;exitDx=0;exitDy=0;entryX=1;entryY=1;entryDx=0;entryDy=0;endArrow=none;endFill=0;" edge="1" parent="1" source="ICw0-tsvLoCsqjR65B9b-104" target="ICw0-tsvLoCsqjR65B9b-94">
          <mxGeometry relative="1" as="geometry" />
        </mxCell>
        <mxCell id="ICw0-tsvLoCsqjR65B9b-104" value="phone_number" style="ellipse;whiteSpace=wrap;html=1;align=center;" vertex="1" parent="1">
          <mxGeometry x="300" y="910" width="100" height="40" as="geometry" />
        </mxCell>
        <mxCell id="ICw0-tsvLoCsqjR65B9b-105" value="score" style="ellipse;whiteSpace=wrap;html=1;align=center;" vertex="1" parent="1">
          <mxGeometry x="200" y="930" width="100" height="40" as="geometry" />
        </mxCell>
        <mxCell id="ICw0-tsvLoCsqjR65B9b-106" style="edgeStyle=orthogonalEdgeStyle;rounded=0;orthogonalLoop=1;jettySize=auto;html=1;exitX=0.75;exitY=1;exitDx=0;exitDy=0;entryX=0.573;entryY=0.05;entryDx=0;entryDy=0;entryPerimeter=0;endArrow=none;endFill=0;" edge="1" parent="1" source="ICw0-tsvLoCsqjR65B9b-94" target="ICw0-tsvLoCsqjR65B9b-105">
          <mxGeometry relative="1" as="geometry" />
        </mxCell>
        <mxCell id="ICw0-tsvLoCsqjR65B9b-107" value="amenities" style="ellipse;shape=doubleEllipse;margin=3;whiteSpace=wrap;html=1;align=center;" vertex="1" parent="1">
          <mxGeometry x="90" y="930" width="100" height="40" as="geometry" />
        </mxCell>
        <mxCell id="ICw0-tsvLoCsqjR65B9b-108" style="edgeStyle=orthogonalEdgeStyle;rounded=0;orthogonalLoop=1;jettySize=auto;html=1;exitX=1;exitY=0.5;exitDx=0;exitDy=0;entryX=0;entryY=0.75;entryDx=0;entryDy=0;endArrow=none;endFill=0;" edge="1" parent="1" source="ICw0-tsvLoCsqjR65B9b-109" target="ICw0-tsvLoCsqjR65B9b-94">
          <mxGeometry relative="1" as="geometry" />
        </mxCell>
        <mxCell id="ICw0-tsvLoCsqjR65B9b-109" value="comments" style="ellipse;shape=doubleEllipse;margin=3;whiteSpace=wrap;html=1;align=center;" vertex="1" parent="1">
          <mxGeometry x="40" y="890" width="100" height="40" as="geometry" />
        </mxCell>
        <mxCell id="ICw0-tsvLoCsqjR65B9b-125" style="edgeStyle=orthogonalEdgeStyle;rounded=0;orthogonalLoop=1;jettySize=auto;html=1;exitX=1;exitY=0.25;exitDx=0;exitDy=0;entryX=0;entryY=0.5;entryDx=0;entryDy=0;endArrow=none;endFill=0;" edge="1" parent="1" source="ICw0-tsvLoCsqjR65B9b-113" target="ICw0-tsvLoCsqjR65B9b-123">
          <mxGeometry relative="1" as="geometry" />
        </mxCell>
        <mxCell id="ICw0-tsvLoCsqjR65B9b-113" value="bank_account" style="rounded=1;arcSize=10;whiteSpace=wrap;html=1;align=center;" vertex="1" parent="1">
          <mxGeometry x="740" y="440" width="100" height="40" as="geometry" />
        </mxCell>
        <mxCell id="ICw0-tsvLoCsqjR65B9b-116" style="edgeStyle=orthogonalEdgeStyle;rounded=0;orthogonalLoop=1;jettySize=auto;html=1;exitX=1;exitY=0.5;exitDx=0;exitDy=0;entryX=0;entryY=0.5;entryDx=0;entryDy=0;endArrow=ERmany;endFill=0;" edge="1" parent="1" source="ICw0-tsvLoCsqjR65B9b-115" target="ICw0-tsvLoCsqjR65B9b-113">
          <mxGeometry relative="1" as="geometry" />
        </mxCell>
        <mxCell id="ICw0-tsvLoCsqjR65B9b-117" style="edgeStyle=orthogonalEdgeStyle;rounded=0;orthogonalLoop=1;jettySize=auto;html=1;exitX=0;exitY=0.5;exitDx=0;exitDy=0;entryX=1;entryY=0.75;entryDx=0;entryDy=0;" edge="1" parent="1" source="ICw0-tsvLoCsqjR65B9b-115" target="ICw0-tsvLoCsqjR65B9b-1">
          <mxGeometry relative="1" as="geometry">
            <mxPoint x="330" y="210" as="targetPoint" />
          </mxGeometry>
        </mxCell>
        <mxCell id="ICw0-tsvLoCsqjR65B9b-115" value="has" style="shape=rhombus;perimeter=rhombusPerimeter;whiteSpace=wrap;html=1;align=center;" vertex="1" parent="1">
          <mxGeometry x="600" y="440" width="90" height="40" as="geometry" />
        </mxCell>
        <mxCell id="ICw0-tsvLoCsqjR65B9b-120" style="edgeStyle=orthogonalEdgeStyle;rounded=0;orthogonalLoop=1;jettySize=auto;html=1;exitX=1;exitY=1;exitDx=0;exitDy=0;entryX=0.25;entryY=0;entryDx=0;entryDy=0;" edge="1" parent="1" source="ICw0-tsvLoCsqjR65B9b-118" target="ICw0-tsvLoCsqjR65B9b-113">
          <mxGeometry relative="1" as="geometry" />
        </mxCell>
        <mxCell id="ICw0-tsvLoCsqjR65B9b-118" value="bank_name" style="ellipse;whiteSpace=wrap;html=1;align=center;" vertex="1" parent="1">
          <mxGeometry x="680" y="370" width="100" height="40" as="geometry" />
        </mxCell>
        <mxCell id="ICw0-tsvLoCsqjR65B9b-121" value="&lt;u&gt;bank_account_id&lt;/u&gt;" style="ellipse;whiteSpace=wrap;html=1;align=center;" vertex="1" parent="1">
          <mxGeometry x="800" y="380" width="100" height="40" as="geometry" />
        </mxCell>
        <mxCell id="ICw0-tsvLoCsqjR65B9b-122" style="edgeStyle=orthogonalEdgeStyle;rounded=0;orthogonalLoop=1;jettySize=auto;html=1;exitX=0.75;exitY=0;exitDx=0;exitDy=0;entryX=0.232;entryY=0.937;entryDx=0;entryDy=0;entryPerimeter=0;" edge="1" parent="1" source="ICw0-tsvLoCsqjR65B9b-113" target="ICw0-tsvLoCsqjR65B9b-121">
          <mxGeometry relative="1" as="geometry" />
        </mxCell>
        <mxCell id="ICw0-tsvLoCsqjR65B9b-123" value="account_number" style="ellipse;whiteSpace=wrap;html=1;align=center;" vertex="1" parent="1">
          <mxGeometry x="860" y="430" width="100" height="40" as="geometry" />
        </mxCell>
        <mxCell id="ICw0-tsvLoCsqjR65B9b-126" value="cvv2" style="ellipse;whiteSpace=wrap;html=1;align=center;" vertex="1" parent="1">
          <mxGeometry x="850" y="505" width="100" height="40" as="geometry" />
        </mxCell>
        <mxCell id="ICw0-tsvLoCsqjR65B9b-127" style="edgeStyle=orthogonalEdgeStyle;rounded=0;orthogonalLoop=1;jettySize=auto;html=1;entryX=0.918;entryY=1.017;entryDx=0;entryDy=0;entryPerimeter=0;" edge="1" parent="1" source="ICw0-tsvLoCsqjR65B9b-126" target="ICw0-tsvLoCsqjR65B9b-113">
          <mxGeometry relative="1" as="geometry" />
        </mxCell>
        <mxCell id="ICw0-tsvLoCsqjR65B9b-141" style="edgeStyle=orthogonalEdgeStyle;rounded=0;orthogonalLoop=1;jettySize=auto;html=1;exitX=0.75;exitY=0;exitDx=0;exitDy=0;entryX=0;entryY=0.5;entryDx=0;entryDy=0;endArrow=none;endFill=0;strokeColor=default;" edge="1" parent="1" source="ICw0-tsvLoCsqjR65B9b-144" target="ICw0-tsvLoCsqjR65B9b-147">
          <mxGeometry relative="1" as="geometry" />
        </mxCell>
        <mxCell id="ICw0-tsvLoCsqjR65B9b-142" style="edgeStyle=orthogonalEdgeStyle;rounded=0;orthogonalLoop=1;jettySize=auto;html=1;exitX=1;exitY=0.75;exitDx=0;exitDy=0;endArrow=none;endFill=0;" edge="1" parent="1" source="ICw0-tsvLoCsqjR65B9b-144" target="ICw0-tsvLoCsqjR65B9b-150">
          <mxGeometry relative="1" as="geometry" />
        </mxCell>
        <mxCell id="ICw0-tsvLoCsqjR65B9b-143" style="edgeStyle=orthogonalEdgeStyle;rounded=0;orthogonalLoop=1;jettySize=auto;html=1;exitX=0.5;exitY=1;exitDx=0;exitDy=0;entryX=1;entryY=0;entryDx=0;entryDy=0;endArrow=none;endFill=0;" edge="1" parent="1" source="ICw0-tsvLoCsqjR65B9b-144" target="ICw0-tsvLoCsqjR65B9b-153">
          <mxGeometry relative="1" as="geometry" />
        </mxCell>
        <mxCell id="ICw0-tsvLoCsqjR65B9b-144" value="room" style="rounded=1;arcSize=10;whiteSpace=wrap;html=1;align=center;" vertex="1" parent="1">
          <mxGeometry x="605" y="830" width="100" height="40" as="geometry" />
        </mxCell>
        <mxCell id="ICw0-tsvLoCsqjR65B9b-145" value="" style="edgeStyle=orthogonalEdgeStyle;rounded=0;orthogonalLoop=1;jettySize=auto;html=1;endArrow=none;endFill=0;" edge="1" parent="1" source="ICw0-tsvLoCsqjR65B9b-146" target="ICw0-tsvLoCsqjR65B9b-144">
          <mxGeometry relative="1" as="geometry" />
        </mxCell>
        <mxCell id="ICw0-tsvLoCsqjR65B9b-146" value="beds_number" style="ellipse;whiteSpace=wrap;html=1;align=center;" vertex="1" parent="1">
          <mxGeometry x="605" y="760" width="100" height="40" as="geometry" />
        </mxCell>
        <mxCell id="ICw0-tsvLoCsqjR65B9b-147" value="size" style="ellipse;whiteSpace=wrap;html=1;align=center;" vertex="1" parent="1">
          <mxGeometry x="715" y="780" width="100" height="40" as="geometry" />
        </mxCell>
        <mxCell id="ICw0-tsvLoCsqjR65B9b-148" value="" style="edgeStyle=orthogonalEdgeStyle;rounded=0;orthogonalLoop=1;jettySize=auto;html=1;endArrow=none;endFill=0;" edge="1" parent="1" source="ICw0-tsvLoCsqjR65B9b-149" target="ICw0-tsvLoCsqjR65B9b-144">
          <mxGeometry relative="1" as="geometry" />
        </mxCell>
        <mxCell id="ICw0-tsvLoCsqjR65B9b-149" value="capacity" style="ellipse;whiteSpace=wrap;html=1;align=center;" vertex="1" parent="1">
          <mxGeometry x="745" y="830" width="100" height="40" as="geometry" />
        </mxCell>
        <mxCell id="ICw0-tsvLoCsqjR65B9b-150" value="equipment" style="ellipse;shape=doubleEllipse;margin=3;whiteSpace=wrap;html=1;align=center;" vertex="1" parent="1">
          <mxGeometry x="740" y="920" width="100" height="40" as="geometry" />
        </mxCell>
        <mxCell id="ICw0-tsvLoCsqjR65B9b-151" value="amenity" style="ellipse;shape=doubleEllipse;margin=3;whiteSpace=wrap;html=1;align=center;" vertex="1" parent="1">
          <mxGeometry x="495" y="760" width="100" height="40" as="geometry" />
        </mxCell>
        <mxCell id="ICw0-tsvLoCsqjR65B9b-152" style="edgeStyle=orthogonalEdgeStyle;rounded=0;orthogonalLoop=1;jettySize=auto;html=1;exitX=0.25;exitY=0;exitDx=0;exitDy=0;entryX=0.917;entryY=0.862;entryDx=0;entryDy=0;entryPerimeter=0;endArrow=none;endFill=0;" edge="1" parent="1" source="ICw0-tsvLoCsqjR65B9b-144" target="ICw0-tsvLoCsqjR65B9b-151">
          <mxGeometry relative="1" as="geometry" />
        </mxCell>
        <mxCell id="ICw0-tsvLoCsqjR65B9b-153" value="state" style="ellipse;whiteSpace=wrap;html=1;align=center;" vertex="1" parent="1">
          <mxGeometry x="575" y="900" width="100" height="40" as="geometry" />
        </mxCell>
        <mxCell id="ICw0-tsvLoCsqjR65B9b-157" style="edgeStyle=orthogonalEdgeStyle;rounded=0;orthogonalLoop=1;jettySize=auto;html=1;exitX=1;exitY=0.5;exitDx=0;exitDy=0;entryX=0;entryY=0.5;entryDx=0;entryDy=0;endArrow=ERmany;endFill=0;" edge="1" parent="1" source="ICw0-tsvLoCsqjR65B9b-155" target="ICw0-tsvLoCsqjR65B9b-144">
          <mxGeometry relative="1" as="geometry" />
        </mxCell>
        <mxCell id="ICw0-tsvLoCsqjR65B9b-155" value="has" style="shape=rhombus;perimeter=rhombusPerimeter;whiteSpace=wrap;html=1;align=center;" vertex="1" parent="1">
          <mxGeometry x="405" y="860" width="90" height="40" as="geometry" />
        </mxCell>
        <mxCell id="ICw0-tsvLoCsqjR65B9b-168" style="edgeStyle=orthogonalEdgeStyle;rounded=0;orthogonalLoop=1;jettySize=auto;html=1;exitX=0;exitY=0.5;exitDx=0;exitDy=0;entryX=1;entryY=0.5;entryDx=0;entryDy=0;endArrow=none;endFill=0;" edge="1" parent="1" source="ICw0-tsvLoCsqjR65B9b-160" target="ICw0-tsvLoCsqjR65B9b-164">
          <mxGeometry relative="1" as="geometry" />
        </mxCell>
        <mxCell id="ICw0-tsvLoCsqjR65B9b-160" value="customers_club" style="shape=ext;margin=3;double=1;whiteSpace=wrap;html=1;align=center;" vertex="1" parent="1">
          <mxGeometry x="305" y="540" width="100" height="40" as="geometry" />
        </mxCell>
        <mxCell id="ICw0-tsvLoCsqjR65B9b-161" value="" style="edgeStyle=orthogonalEdgeStyle;rounded=0;orthogonalLoop=1;jettySize=auto;html=1;endArrow=none;endFill=0;" edge="1" parent="1" source="ICw0-tsvLoCsqjR65B9b-162" target="ICw0-tsvLoCsqjR65B9b-160">
          <mxGeometry relative="1" as="geometry" />
        </mxCell>
        <mxCell id="ICw0-tsvLoCsqjR65B9b-162" value="scale" style="ellipse;whiteSpace=wrap;html=1;align=center;dashed=1;" vertex="1" parent="1">
          <mxGeometry x="305" y="470" width="100" height="40" as="geometry" />
        </mxCell>
        <mxCell id="ICw0-tsvLoCsqjR65B9b-169" style="edgeStyle=orthogonalEdgeStyle;rounded=0;orthogonalLoop=1;jettySize=auto;html=1;exitX=0;exitY=0.5;exitDx=0;exitDy=0;entryX=1;entryY=1;entryDx=0;entryDy=0;endArrow=ERmany;endFill=0;" edge="1" parent="1" source="ICw0-tsvLoCsqjR65B9b-164" target="ICw0-tsvLoCsqjR65B9b-58">
          <mxGeometry relative="1" as="geometry" />
        </mxCell>
        <mxCell id="ICw0-tsvLoCsqjR65B9b-164" value="has" style="shape=rhombus;double=1;perimeter=rhombusPerimeter;whiteSpace=wrap;html=1;align=center;" vertex="1" parent="1">
          <mxGeometry x="150" y="540" width="90" height="40" as="geometry" />
        </mxCell>
        <mxCell id="ICw0-tsvLoCsqjR65B9b-171" value="room_id" style="ellipse;whiteSpace=wrap;html=1;align=center;" vertex="1" parent="1">
          <mxGeometry x="640" y="950" width="100" height="40" as="geometry" />
        </mxCell>
        <mxCell id="ICw0-tsvLoCsqjR65B9b-172" style="edgeStyle=orthogonalEdgeStyle;rounded=0;orthogonalLoop=1;jettySize=auto;html=1;exitX=0.5;exitY=0;exitDx=0;exitDy=0;entryX=0.846;entryY=1.014;entryDx=0;entryDy=0;entryPerimeter=0;endArrow=none;endFill=0;" edge="1" parent="1" source="ICw0-tsvLoCsqjR65B9b-171" target="ICw0-tsvLoCsqjR65B9b-144">
          <mxGeometry relative="1" as="geometry" />
        </mxCell>
        <mxCell id="ICw0-tsvLoCsqjR65B9b-173" value="reservation" style="rounded=1;whiteSpace=wrap;html=1;" vertex="1" parent="1">
          <mxGeometry x="1320" y="760" width="120" height="60" as="geometry" />
        </mxCell>
        <mxCell id="ICw0-tsvLoCsqjR65B9b-174" value="cost" style="ellipse;whiteSpace=wrap;html=1;" vertex="1" parent="1">
          <mxGeometry x="1450" y="670" width="120" height="80" as="geometry" />
        </mxCell>
        <mxCell id="ICw0-tsvLoCsqjR65B9b-175" value="" style="triangle;whiteSpace=wrap;html=1;rotation=90;" vertex="1" parent="1">
          <mxGeometry x="1350" y="850" width="60" height="80" as="geometry" />
        </mxCell>
        <mxCell id="ICw0-tsvLoCsqjR65B9b-176" value="" style="endArrow=none;html=1;rounded=0;exitX=0.5;exitY=1;exitDx=0;exitDy=0;entryX=0;entryY=0.5;entryDx=0;entryDy=0;" edge="1" parent="1" source="ICw0-tsvLoCsqjR65B9b-173" target="ICw0-tsvLoCsqjR65B9b-175">
          <mxGeometry width="50" height="50" relative="1" as="geometry">
            <mxPoint x="1390" y="790" as="sourcePoint" />
            <mxPoint x="1440" y="740" as="targetPoint" />
          </mxGeometry>
        </mxCell>
        <mxCell id="ICw0-tsvLoCsqjR65B9b-177" value="hotel_reservation" style="rounded=1;whiteSpace=wrap;html=1;" vertex="1" parent="1">
          <mxGeometry x="1240" y="950" width="120" height="60" as="geometry" />
        </mxCell>
        <mxCell id="ICw0-tsvLoCsqjR65B9b-178" value="transport_reservation" style="rounded=1;whiteSpace=wrap;html=1;" vertex="1" parent="1">
          <mxGeometry x="1400" y="950" width="120" height="60" as="geometry" />
        </mxCell>
        <mxCell id="ICw0-tsvLoCsqjR65B9b-179" value="" style="endArrow=none;html=1;rounded=0;exitX=0.5;exitY=1;exitDx=0;exitDy=0;entryX=0.5;entryY=0;entryDx=0;entryDy=0;" edge="1" parent="1" source="ICw0-tsvLoCsqjR65B9b-175" target="ICw0-tsvLoCsqjR65B9b-177">
          <mxGeometry width="50" height="50" relative="1" as="geometry">
            <mxPoint x="1390" y="790" as="sourcePoint" />
            <mxPoint x="1440" y="740" as="targetPoint" />
          </mxGeometry>
        </mxCell>
        <mxCell id="ICw0-tsvLoCsqjR65B9b-180" value="" style="endArrow=none;html=1;rounded=0;exitX=0.5;exitY=0;exitDx=0;exitDy=0;entryX=0.5;entryY=0;entryDx=0;entryDy=0;" edge="1" parent="1" source="ICw0-tsvLoCsqjR65B9b-175" target="ICw0-tsvLoCsqjR65B9b-178">
          <mxGeometry width="50" height="50" relative="1" as="geometry">
            <mxPoint x="1390" y="790" as="sourcePoint" />
            <mxPoint x="1440" y="740" as="targetPoint" />
          </mxGeometry>
        </mxCell>
        <mxCell id="ICw0-tsvLoCsqjR65B9b-181" value="" style="endArrow=none;html=1;rounded=0;entryX=1;entryY=0;entryDx=0;entryDy=0;exitX=0;exitY=1;exitDx=0;exitDy=0;" edge="1" parent="1" source="ICw0-tsvLoCsqjR65B9b-174" target="ICw0-tsvLoCsqjR65B9b-173">
          <mxGeometry width="50" height="50" relative="1" as="geometry">
            <mxPoint x="1390" y="900" as="sourcePoint" />
            <mxPoint x="1440" y="850" as="targetPoint" />
          </mxGeometry>
        </mxCell>
        <mxCell id="ICw0-tsvLoCsqjR65B9b-185" value="start_date" style="ellipse;whiteSpace=wrap;html=1;" vertex="1" parent="1">
          <mxGeometry x="1120" y="1010" width="120" height="80" as="geometry" />
        </mxCell>
        <mxCell id="ICw0-tsvLoCsqjR65B9b-186" value="duration" style="ellipse;whiteSpace=wrap;html=1;" vertex="1" parent="1">
          <mxGeometry x="1240" y="1040" width="120" height="80" as="geometry" />
        </mxCell>
        <mxCell id="ICw0-tsvLoCsqjR65B9b-187" value="reserve_date" style="ellipse;whiteSpace=wrap;html=1;" vertex="1" parent="1">
          <mxGeometry x="1460" y="770" width="120" height="80" as="geometry" />
        </mxCell>
        <mxCell id="ICw0-tsvLoCsqjR65B9b-188" value="&lt;u&gt;reserve_id&lt;/u&gt;" style="ellipse;whiteSpace=wrap;html=1;" vertex="1" parent="1">
          <mxGeometry x="1170" y="780" width="120" height="80" as="geometry" />
        </mxCell>
        <mxCell id="ICw0-tsvLoCsqjR65B9b-189" value="travel_date" style="ellipse;whiteSpace=wrap;html=1;" vertex="1" parent="1">
          <mxGeometry x="1530" y="1020" width="120" height="80" as="geometry" />
        </mxCell>
        <mxCell id="ICw0-tsvLoCsqjR65B9b-190" value="" style="endArrow=none;html=1;rounded=0;exitX=0;exitY=1;exitDx=0;exitDy=0;entryX=1;entryY=0;entryDx=0;entryDy=0;" edge="1" parent="1" source="ICw0-tsvLoCsqjR65B9b-177" target="ICw0-tsvLoCsqjR65B9b-185">
          <mxGeometry width="50" height="50" relative="1" as="geometry">
            <mxPoint x="1390" y="890" as="sourcePoint" />
            <mxPoint x="1440" y="840" as="targetPoint" />
          </mxGeometry>
        </mxCell>
        <mxCell id="ICw0-tsvLoCsqjR65B9b-191" value="" style="endArrow=none;html=1;rounded=0;entryX=0;entryY=0.5;entryDx=0;entryDy=0;exitX=1;exitY=0.75;exitDx=0;exitDy=0;" edge="1" parent="1" source="ICw0-tsvLoCsqjR65B9b-173" target="ICw0-tsvLoCsqjR65B9b-187">
          <mxGeometry width="50" height="50" relative="1" as="geometry">
            <mxPoint x="1390" y="890" as="sourcePoint" />
            <mxPoint x="1440" y="840" as="targetPoint" />
          </mxGeometry>
        </mxCell>
        <mxCell id="ICw0-tsvLoCsqjR65B9b-193" value="" style="endArrow=none;html=1;rounded=0;exitX=1;exitY=0.5;exitDx=0;exitDy=0;entryX=0;entryY=0.75;entryDx=0;entryDy=0;" edge="1" parent="1" source="ICw0-tsvLoCsqjR65B9b-188" target="ICw0-tsvLoCsqjR65B9b-173">
          <mxGeometry width="50" height="50" relative="1" as="geometry">
            <mxPoint x="1390" y="890" as="sourcePoint" />
            <mxPoint x="1440" y="840" as="targetPoint" />
          </mxGeometry>
        </mxCell>
        <mxCell id="ICw0-tsvLoCsqjR65B9b-194" value="" style="endArrow=none;html=1;rounded=0;entryX=1;entryY=1;entryDx=0;entryDy=0;exitX=0;exitY=0;exitDx=0;exitDy=0;" edge="1" parent="1" source="ICw0-tsvLoCsqjR65B9b-189" target="ICw0-tsvLoCsqjR65B9b-178">
          <mxGeometry width="50" height="50" relative="1" as="geometry">
            <mxPoint x="1390" y="890" as="sourcePoint" />
            <mxPoint x="1440" y="840" as="targetPoint" />
          </mxGeometry>
        </mxCell>
        <mxCell id="ICw0-tsvLoCsqjR65B9b-195" value="" style="endArrow=none;html=1;rounded=0;exitX=0.5;exitY=1;exitDx=0;exitDy=0;entryX=0.5;entryY=0;entryDx=0;entryDy=0;" edge="1" parent="1" source="ICw0-tsvLoCsqjR65B9b-177" target="ICw0-tsvLoCsqjR65B9b-186">
          <mxGeometry width="50" height="50" relative="1" as="geometry">
            <mxPoint x="1390" y="890" as="sourcePoint" />
            <mxPoint x="1440" y="840" as="targetPoint" />
          </mxGeometry>
        </mxCell>
        <mxCell id="ICw0-tsvLoCsqjR65B9b-196" style="edgeStyle=orthogonalEdgeStyle;rounded=0;orthogonalLoop=1;jettySize=auto;html=1;exitX=0.5;exitY=1;exitDx=0;exitDy=0;entryX=0.5;entryY=0;entryDx=0;entryDy=0;" edge="1" parent="1" source="ICw0-tsvLoCsqjR65B9b-197" target="ICw0-tsvLoCsqjR65B9b-173">
          <mxGeometry relative="1" as="geometry" />
        </mxCell>
        <mxCell id="ICw0-tsvLoCsqjR65B9b-197" value="state" style="ellipse;whiteSpace=wrap;html=1;align=center;" vertex="1" parent="1">
          <mxGeometry x="1330" y="660" width="100" height="40" as="geometry" />
        </mxCell>
        <mxCell id="ICw0-tsvLoCsqjR65B9b-198" value="user" style="rounded=1;arcSize=10;whiteSpace=wrap;html=1;align=center;fillColor=#f8cecc;strokeColor=#b85450;" vertex="1" parent="1">
          <mxGeometry x="1070" y="700" width="100" height="40" as="geometry" />
        </mxCell>
        <mxCell id="ICw0-tsvLoCsqjR65B9b-201" style="edgeStyle=orthogonalEdgeStyle;rounded=0;orthogonalLoop=1;jettySize=auto;html=1;exitX=0;exitY=0.5;exitDx=0;exitDy=0;entryX=1;entryY=0.5;entryDx=0;entryDy=0;" edge="1" parent="1" source="ICw0-tsvLoCsqjR65B9b-199" target="ICw0-tsvLoCsqjR65B9b-198">
          <mxGeometry relative="1" as="geometry" />
        </mxCell>
        <mxCell id="ICw0-tsvLoCsqjR65B9b-199" value="does" style="shape=rhombus;perimeter=rhombusPerimeter;whiteSpace=wrap;html=1;align=center;" vertex="1" parent="1">
          <mxGeometry x="1220" y="700" width="90" height="40" as="geometry" />
        </mxCell>
        <mxCell id="ICw0-tsvLoCsqjR65B9b-200" style="edgeStyle=orthogonalEdgeStyle;rounded=0;orthogonalLoop=1;jettySize=auto;html=1;exitX=1;exitY=0.5;exitDx=0;exitDy=0;entryX=0.192;entryY=0.037;entryDx=0;entryDy=0;entryPerimeter=0;endArrow=ERmany;endFill=0;" edge="1" parent="1" source="ICw0-tsvLoCsqjR65B9b-199" target="ICw0-tsvLoCsqjR65B9b-173">
          <mxGeometry relative="1" as="geometry" />
        </mxCell>
        <mxCell id="ICw0-tsvLoCsqjR65B9b-204" style="edgeStyle=orthogonalEdgeStyle;rounded=0;orthogonalLoop=1;jettySize=auto;html=1;exitX=1;exitY=0.5;exitDx=0;exitDy=0;endArrow=none;endFill=0;" edge="1" parent="1" source="ICw0-tsvLoCsqjR65B9b-202" target="ICw0-tsvLoCsqjR65B9b-203">
          <mxGeometry relative="1" as="geometry" />
        </mxCell>
        <mxCell id="ICw0-tsvLoCsqjR65B9b-202" value="hotel" style="rounded=1;arcSize=10;whiteSpace=wrap;html=1;align=center;fillColor=#f8cecc;strokeColor=#b85450;" vertex="1" parent="1">
          <mxGeometry x="980" y="950" width="100" height="40" as="geometry" />
        </mxCell>
        <mxCell id="ICw0-tsvLoCsqjR65B9b-203" value="reserves" style="shape=rhombus;perimeter=rhombusPerimeter;whiteSpace=wrap;html=1;align=center;" vertex="1" parent="1">
          <mxGeometry x="1130" y="950" width="90" height="40" as="geometry" />
        </mxCell>
        <mxCell id="ICw0-tsvLoCsqjR65B9b-205" style="edgeStyle=orthogonalEdgeStyle;rounded=0;orthogonalLoop=1;jettySize=auto;html=1;exitX=1;exitY=0.5;exitDx=0;exitDy=0;entryX=-0.003;entryY=0.37;entryDx=0;entryDy=0;entryPerimeter=0;endArrow=ERmany;endFill=0;" edge="1" parent="1" source="ICw0-tsvLoCsqjR65B9b-203" target="ICw0-tsvLoCsqjR65B9b-177">
          <mxGeometry relative="1" as="geometry">
            <Array as="points">
              <mxPoint x="1240" y="970" />
            </Array>
          </mxGeometry>
        </mxCell>
        <mxCell id="ICw0-tsvLoCsqjR65B9b-207" style="edgeStyle=orthogonalEdgeStyle;rounded=0;orthogonalLoop=1;jettySize=auto;html=1;exitX=1;exitY=1;exitDx=0;exitDy=0;entryX=0;entryY=1;entryDx=0;entryDy=0;endArrow=none;endFill=0;" edge="1" parent="1" source="ICw0-tsvLoCsqjR65B9b-210" target="ICw0-tsvLoCsqjR65B9b-217">
          <mxGeometry relative="1" as="geometry">
            <mxPoint x="1300.0020689655173" y="1529.1379310344828" as="sourcePoint" />
            <mxPoint x="1485.3574080248447" y="1509.995795410752" as="targetPoint" />
            <Array as="points">
              <mxPoint x="1415" y="1520" />
            </Array>
          </mxGeometry>
        </mxCell>
        <mxCell id="ICw0-tsvLoCsqjR65B9b-209" style="edgeStyle=orthogonalEdgeStyle;rounded=0;orthogonalLoop=1;jettySize=auto;html=1;entryX=1;entryY=0.5;entryDx=0;entryDy=0;endArrow=none;endFill=0;" edge="1" parent="1" source="ICw0-tsvLoCsqjR65B9b-210" target="ICw0-tsvLoCsqjR65B9b-231">
          <mxGeometry relative="1" as="geometry" />
        </mxCell>
        <mxCell id="ICw0-tsvLoCsqjR65B9b-265" style="edgeStyle=orthogonalEdgeStyle;rounded=0;orthogonalLoop=1;jettySize=auto;html=1;exitX=0.25;exitY=0;exitDx=0;exitDy=0;endArrow=none;endFill=0;" edge="1" parent="1" source="ICw0-tsvLoCsqjR65B9b-210">
          <mxGeometry relative="1" as="geometry">
            <mxPoint x="990" y="1280" as="targetPoint" />
          </mxGeometry>
        </mxCell>
        <mxCell id="ICw0-tsvLoCsqjR65B9b-210" value="trip" style="rounded=1;arcSize=10;whiteSpace=wrap;html=1;align=center;" vertex="1" parent="1">
          <mxGeometry x="1200.0020689655173" y="1479.9979310344827" width="100" height="40" as="geometry" />
        </mxCell>
        <mxCell id="ICw0-tsvLoCsqjR65B9b-211" value="" style="edgeStyle=orthogonalEdgeStyle;rounded=0;orthogonalLoop=1;jettySize=auto;html=1;endArrow=none;endFill=0;" edge="1" parent="1" source="ICw0-tsvLoCsqjR65B9b-212" target="ICw0-tsvLoCsqjR65B9b-210">
          <mxGeometry relative="1" as="geometry" />
        </mxCell>
        <mxCell id="ICw0-tsvLoCsqjR65B9b-212" value="&lt;u&gt;trip_number&lt;/u&gt;" style="ellipse;whiteSpace=wrap;html=1;align=center;" vertex="1" parent="1">
          <mxGeometry x="1310.0020689655173" y="1229.9979310344827" width="100" height="40" as="geometry" />
        </mxCell>
        <mxCell id="ICw0-tsvLoCsqjR65B9b-215" style="edgeStyle=orthogonalEdgeStyle;rounded=0;orthogonalLoop=1;jettySize=auto;html=1;exitX=0;exitY=0.75;exitDx=0;exitDy=0;entryX=1;entryY=0.5;entryDx=0;entryDy=0;endArrow=none;endFill=0;" edge="1" parent="1" source="ICw0-tsvLoCsqjR65B9b-210" target="ICw0-tsvLoCsqjR65B9b-220">
          <mxGeometry relative="1" as="geometry">
            <mxPoint x="1170.0020689655173" y="1519.997931034483" as="targetPoint" />
            <Array as="points">
              <mxPoint x="1200" y="1490" />
              <mxPoint x="1020" y="1490" />
            </Array>
          </mxGeometry>
        </mxCell>
        <mxCell id="ICw0-tsvLoCsqjR65B9b-216" value="" style="edgeStyle=orthogonalEdgeStyle;rounded=0;orthogonalLoop=1;jettySize=auto;html=1;endArrow=none;endFill=0;" edge="1" parent="1" source="ICw0-tsvLoCsqjR65B9b-217" target="ICw0-tsvLoCsqjR65B9b-224">
          <mxGeometry relative="1" as="geometry">
            <Array as="points">
              <mxPoint x="1450" y="1545" />
              <mxPoint x="1440" y="1545" />
              <mxPoint x="1440" y="1570" />
            </Array>
          </mxGeometry>
        </mxCell>
        <mxCell id="ICw0-tsvLoCsqjR65B9b-217" value="start" style="ellipse;whiteSpace=wrap;html=1;align=center;" vertex="1" parent="1">
          <mxGeometry x="1400.0020689655173" y="1474.9979310344827" width="100" height="40" as="geometry" />
        </mxCell>
        <mxCell id="ICw0-tsvLoCsqjR65B9b-219" style="edgeStyle=orthogonalEdgeStyle;rounded=0;orthogonalLoop=1;jettySize=auto;html=1;entryX=1;entryY=0.5;entryDx=0;entryDy=0;endArrow=none;endFill=0;exitX=0;exitY=0;exitDx=0;exitDy=0;" edge="1" parent="1" source="ICw0-tsvLoCsqjR65B9b-220" target="ICw0-tsvLoCsqjR65B9b-227">
          <mxGeometry relative="1" as="geometry">
            <Array as="points">
              <mxPoint x="935" y="1390" />
              <mxPoint x="900" y="1390" />
            </Array>
          </mxGeometry>
        </mxCell>
        <mxCell id="ICw0-tsvLoCsqjR65B9b-220" value="end" style="ellipse;whiteSpace=wrap;html=1;align=center;" vertex="1" parent="1">
          <mxGeometry x="920.0020689655173" y="1389.9979310344827" width="100" height="40" as="geometry" />
        </mxCell>
        <mxCell id="ICw0-tsvLoCsqjR65B9b-221" value="capacity" style="ellipse;whiteSpace=wrap;html=1;align=center;" vertex="1" parent="1">
          <mxGeometry x="1410.0020689655173" y="1369.9979310344827" width="100" height="40" as="geometry" />
        </mxCell>
        <mxCell id="ICw0-tsvLoCsqjR65B9b-222" style="edgeStyle=orthogonalEdgeStyle;rounded=0;orthogonalLoop=1;jettySize=auto;html=1;endArrow=none;endFill=0;entryX=0;entryY=0.5;entryDx=0;entryDy=0;exitX=1.016;exitY=0.401;exitDx=0;exitDy=0;exitPerimeter=0;" edge="1" parent="1" source="ICw0-tsvLoCsqjR65B9b-210" target="ICw0-tsvLoCsqjR65B9b-221">
          <mxGeometry relative="1" as="geometry">
            <mxPoint x="1300" y="1520" as="sourcePoint" />
            <mxPoint x="1420" y="1390" as="targetPoint" />
            <Array as="points">
              <mxPoint x="1302" y="1500" />
              <mxPoint x="1360" y="1500" />
              <mxPoint x="1360" y="1390" />
            </Array>
          </mxGeometry>
        </mxCell>
        <mxCell id="ICw0-tsvLoCsqjR65B9b-224" value="start_date" style="ellipse;whiteSpace=wrap;html=1;align=center;" vertex="1" parent="1">
          <mxGeometry x="1450.0020689655173" y="1549.9979310344827" width="100" height="40" as="geometry" />
        </mxCell>
        <mxCell id="ICw0-tsvLoCsqjR65B9b-225" style="edgeStyle=orthogonalEdgeStyle;rounded=0;orthogonalLoop=1;jettySize=auto;html=1;entryX=0.79;entryY=0.942;entryDx=0;entryDy=0;endArrow=none;endFill=0;entryPerimeter=0;" edge="1" parent="1" source="ICw0-tsvLoCsqjR65B9b-226" target="ICw0-tsvLoCsqjR65B9b-217">
          <mxGeometry relative="1" as="geometry" />
        </mxCell>
        <mxCell id="ICw0-tsvLoCsqjR65B9b-226" value="start_time" style="ellipse;whiteSpace=wrap;html=1;align=center;" vertex="1" parent="1">
          <mxGeometry x="1530.0020689655173" y="1509.9979310344827" width="100" height="40" as="geometry" />
        </mxCell>
        <mxCell id="ICw0-tsvLoCsqjR65B9b-227" value="end_time" style="ellipse;whiteSpace=wrap;html=1;align=center;" vertex="1" parent="1">
          <mxGeometry x="800.0020689655173" y="1359.9979310344827" width="100" height="40" as="geometry" />
        </mxCell>
        <mxCell id="ICw0-tsvLoCsqjR65B9b-228" value="end_date" style="ellipse;whiteSpace=wrap;html=1;align=center;" vertex="1" parent="1">
          <mxGeometry x="800.0020689655173" y="1409.9979310344827" width="100" height="40" as="geometry" />
        </mxCell>
        <mxCell id="ICw0-tsvLoCsqjR65B9b-229" style="edgeStyle=orthogonalEdgeStyle;rounded=0;orthogonalLoop=1;jettySize=auto;html=1;exitX=1;exitY=0.5;exitDx=0;exitDy=0;entryX=0;entryY=1;entryDx=0;entryDy=0;endArrow=none;endFill=0;" edge="1" parent="1" source="ICw0-tsvLoCsqjR65B9b-228" target="ICw0-tsvLoCsqjR65B9b-220">
          <mxGeometry relative="1" as="geometry" />
        </mxCell>
        <mxCell id="ICw0-tsvLoCsqjR65B9b-230" style="edgeStyle=orthogonalEdgeStyle;rounded=0;orthogonalLoop=1;jettySize=auto;html=1;entryX=0.555;entryY=0.048;entryDx=0;entryDy=0;entryPerimeter=0;endArrow=none;endFill=0;" edge="1" parent="1" source="ICw0-tsvLoCsqjR65B9b-231" target="ICw0-tsvLoCsqjR65B9b-244">
          <mxGeometry relative="1" as="geometry">
            <mxPoint x="1410" y="1650" as="targetPoint" />
          </mxGeometry>
        </mxCell>
        <mxCell id="ICw0-tsvLoCsqjR65B9b-231" value="" style="triangle;whiteSpace=wrap;html=1;rotation=-90;flipH=1;" vertex="1" parent="1">
          <mxGeometry x="1235.0020689655173" y="1589.9979310344827" width="30" height="50" as="geometry" />
        </mxCell>
        <mxCell id="ICw0-tsvLoCsqjR65B9b-232" style="edgeStyle=orthogonalEdgeStyle;rounded=0;orthogonalLoop=1;jettySize=auto;html=1;entryX=0.5;entryY=0;entryDx=0;entryDy=0;endArrow=none;endFill=0;" edge="1" parent="1" source="ICw0-tsvLoCsqjR65B9b-234" target="ICw0-tsvLoCsqjR65B9b-231">
          <mxGeometry relative="1" as="geometry">
            <Array as="points">
              <mxPoint x="1130" y="1630" />
              <mxPoint x="1237" y="1630" />
            </Array>
          </mxGeometry>
        </mxCell>
        <mxCell id="ICw0-tsvLoCsqjR65B9b-233" style="edgeStyle=orthogonalEdgeStyle;rounded=0;orthogonalLoop=1;jettySize=auto;html=1;entryX=1;entryY=0.5;entryDx=0;entryDy=0;endArrow=none;endFill=0;" edge="1" parent="1" source="ICw0-tsvLoCsqjR65B9b-234" target="ICw0-tsvLoCsqjR65B9b-237">
          <mxGeometry relative="1" as="geometry">
            <Array as="points">
              <mxPoint x="1060" y="1705" />
              <mxPoint x="1045" y="1705" />
            </Array>
          </mxGeometry>
        </mxCell>
        <mxCell id="ICw0-tsvLoCsqjR65B9b-234" value="train_trip" style="rounded=1;arcSize=10;whiteSpace=wrap;html=1;align=center;" vertex="1" parent="1">
          <mxGeometry x="1050.0020689655173" y="1639.9979310344827" width="100" height="40" as="geometry" />
        </mxCell>
        <mxCell id="ICw0-tsvLoCsqjR65B9b-235" style="edgeStyle=orthogonalEdgeStyle;rounded=0;orthogonalLoop=1;jettySize=auto;html=1;entryX=0;entryY=0.5;entryDx=0;entryDy=0;endArrow=none;endFill=0;" edge="1" parent="1" source="ICw0-tsvLoCsqjR65B9b-236" target="ICw0-tsvLoCsqjR65B9b-231">
          <mxGeometry relative="1" as="geometry" />
        </mxCell>
        <mxCell id="ICw0-tsvLoCsqjR65B9b-236" value="air_trip" style="rounded=1;arcSize=10;whiteSpace=wrap;html=1;align=center;" vertex="1" parent="1">
          <mxGeometry x="1200.0020689655173" y="1659.9979310344827" width="100" height="40" as="geometry" />
        </mxCell>
        <mxCell id="ICw0-tsvLoCsqjR65B9b-237" value="" style="triangle;whiteSpace=wrap;html=1;rotation=-90;flipH=1;" vertex="1" parent="1">
          <mxGeometry x="1030.0020689655173" y="1719.9979310344827" width="30" height="50" as="geometry" />
        </mxCell>
        <mxCell id="ICw0-tsvLoCsqjR65B9b-238" value="train_trip_bus" style="rounded=1;arcSize=10;whiteSpace=wrap;html=1;align=center;" vertex="1" parent="1">
          <mxGeometry x="930.0020689655173" y="1779.9979310344827" width="100" height="40" as="geometry" />
        </mxCell>
        <mxCell id="ICw0-tsvLoCsqjR65B9b-239" style="edgeStyle=orthogonalEdgeStyle;rounded=0;orthogonalLoop=1;jettySize=auto;html=1;entryX=0.5;entryY=0;entryDx=0;entryDy=0;endArrow=none;endFill=0;" edge="1" parent="1" source="ICw0-tsvLoCsqjR65B9b-240" target="ICw0-tsvLoCsqjR65B9b-243">
          <mxGeometry relative="1" as="geometry" />
        </mxCell>
        <mxCell id="ICw0-tsvLoCsqjR65B9b-240" value="tain_trip_koope" style="rounded=1;arcSize=10;whiteSpace=wrap;html=1;align=center;" vertex="1" parent="1">
          <mxGeometry x="1065.0020689655173" y="1779.9979310344827" width="100" height="40" as="geometry" />
        </mxCell>
        <mxCell id="ICw0-tsvLoCsqjR65B9b-241" style="edgeStyle=orthogonalEdgeStyle;rounded=0;orthogonalLoop=1;jettySize=auto;html=1;entryX=0.488;entryY=0.157;entryDx=0;entryDy=0;entryPerimeter=0;endArrow=none;endFill=0;" edge="1" parent="1" source="ICw0-tsvLoCsqjR65B9b-238" target="ICw0-tsvLoCsqjR65B9b-237">
          <mxGeometry relative="1" as="geometry" />
        </mxCell>
        <mxCell id="ICw0-tsvLoCsqjR65B9b-242" style="edgeStyle=orthogonalEdgeStyle;rounded=0;orthogonalLoop=1;jettySize=auto;html=1;entryX=0.335;entryY=0.907;entryDx=0;entryDy=0;entryPerimeter=0;endArrow=none;endFill=0;" edge="1" parent="1" source="ICw0-tsvLoCsqjR65B9b-240" target="ICw0-tsvLoCsqjR65B9b-237">
          <mxGeometry relative="1" as="geometry" />
        </mxCell>
        <mxCell id="ICw0-tsvLoCsqjR65B9b-243" value="koope_capacity" style="ellipse;whiteSpace=wrap;html=1;align=center;" vertex="1" parent="1">
          <mxGeometry x="1065.0020689655173" y="1839.997931034483" width="100" height="40" as="geometry" />
        </mxCell>
        <mxCell id="ICw0-tsvLoCsqjR65B9b-244" value="bus_trip" style="rounded=1;arcSize=10;whiteSpace=wrap;html=1;align=center;" vertex="1" parent="1">
          <mxGeometry x="1360.0020689655173" y="1664.9979310344827" width="100" height="40" as="geometry" />
        </mxCell>
        <mxCell id="ICw0-tsvLoCsqjR65B9b-245" value="bus_type" style="ellipse;whiteSpace=wrap;html=1;align=center;" vertex="1" parent="1">
          <mxGeometry x="1460.0020689655173" y="1609.9979310344827" width="100" height="40" as="geometry" />
        </mxCell>
        <mxCell id="ICw0-tsvLoCsqjR65B9b-246" style="edgeStyle=orthogonalEdgeStyle;rounded=0;orthogonalLoop=1;jettySize=auto;html=1;entryX=0.068;entryY=0.754;entryDx=0;entryDy=0;entryPerimeter=0;endArrow=none;endFill=0;" edge="1" parent="1" source="ICw0-tsvLoCsqjR65B9b-244" target="ICw0-tsvLoCsqjR65B9b-245">
          <mxGeometry relative="1" as="geometry">
            <Array as="points">
              <mxPoint x="1440" y="1645" />
              <mxPoint x="1467" y="1645" />
            </Array>
          </mxGeometry>
        </mxCell>
        <mxCell id="ICw0-tsvLoCsqjR65B9b-247" style="edgeStyle=orthogonalEdgeStyle;rounded=0;orthogonalLoop=1;jettySize=auto;html=1;entryX=1;entryY=0.5;entryDx=0;entryDy=0;endArrow=none;endFill=0;" edge="1" parent="1" source="ICw0-tsvLoCsqjR65B9b-248" target="ICw0-tsvLoCsqjR65B9b-244">
          <mxGeometry relative="1" as="geometry" />
        </mxCell>
        <mxCell id="ICw0-tsvLoCsqjR65B9b-248" value="seat_number" style="ellipse;whiteSpace=wrap;html=1;align=center;" vertex="1" parent="1">
          <mxGeometry x="1490.0020689655173" y="1664.9979310344827" width="100" height="40" as="geometry" />
        </mxCell>
        <mxCell id="ICw0-tsvLoCsqjR65B9b-249" value="capacity" style="ellipse;whiteSpace=wrap;html=1;align=center;" vertex="1" parent="1">
          <mxGeometry x="1510.0020689655173" y="1734.9979310344827" width="100" height="40" as="geometry" />
        </mxCell>
        <mxCell id="ICw0-tsvLoCsqjR65B9b-250" style="edgeStyle=orthogonalEdgeStyle;rounded=0;orthogonalLoop=1;jettySize=auto;html=1;entryX=1.01;entryY=0.938;entryDx=0;entryDy=0;entryPerimeter=0;endArrow=none;endFill=0;" edge="1" parent="1" source="ICw0-tsvLoCsqjR65B9b-249" target="ICw0-tsvLoCsqjR65B9b-244">
          <mxGeometry relative="1" as="geometry" />
        </mxCell>
        <mxCell id="ICw0-tsvLoCsqjR65B9b-251" style="edgeStyle=orthogonalEdgeStyle;rounded=0;orthogonalLoop=1;jettySize=auto;html=1;endArrow=none;endFill=0;" edge="1" parent="1" source="ICw0-tsvLoCsqjR65B9b-252">
          <mxGeometry relative="1" as="geometry">
            <mxPoint x="1280" y="1520" as="targetPoint" />
          </mxGeometry>
        </mxCell>
        <mxCell id="ICw0-tsvLoCsqjR65B9b-252" value="price" style="ellipse;whiteSpace=wrap;html=1;align=center;" vertex="1" parent="1">
          <mxGeometry x="1300.0020689655173" y="1539.9979310344827" width="100" height="40" as="geometry" />
        </mxCell>
        <mxCell id="ICw0-tsvLoCsqjR65B9b-253" value="airplane_name" style="ellipse;whiteSpace=wrap;html=1;align=center;" vertex="1" parent="1">
          <mxGeometry x="1110.0020689655173" y="1709.9979310344827" width="100" height="40" as="geometry" />
        </mxCell>
        <mxCell id="ICw0-tsvLoCsqjR65B9b-254" style="edgeStyle=orthogonalEdgeStyle;rounded=0;orthogonalLoop=1;jettySize=auto;html=1;entryX=0.606;entryY=0.03;entryDx=0;entryDy=0;entryPerimeter=0;endArrow=none;endFill=0;" edge="1" parent="1" source="ICw0-tsvLoCsqjR65B9b-236" target="ICw0-tsvLoCsqjR65B9b-253">
          <mxGeometry relative="1" as="geometry">
            <Array as="points">
              <mxPoint x="1180" y="1680" />
              <mxPoint x="1180" y="1690" />
              <mxPoint x="1171" y="1690" />
            </Array>
          </mxGeometry>
        </mxCell>
        <mxCell id="ICw0-tsvLoCsqjR65B9b-255" value="seat_type" style="ellipse;whiteSpace=wrap;html=1;align=center;" vertex="1" parent="1">
          <mxGeometry x="1210.0020689655173" y="1749.9979310344827" width="100" height="40" as="geometry" />
        </mxCell>
        <mxCell id="ICw0-tsvLoCsqjR65B9b-256" style="edgeStyle=orthogonalEdgeStyle;rounded=0;orthogonalLoop=1;jettySize=auto;html=1;entryX=0.578;entryY=0.95;entryDx=0;entryDy=0;entryPerimeter=0;endArrow=none;endFill=0;" edge="1" parent="1" source="ICw0-tsvLoCsqjR65B9b-255" target="ICw0-tsvLoCsqjR65B9b-236">
          <mxGeometry relative="1" as="geometry" />
        </mxCell>
        <mxCell id="ICw0-tsvLoCsqjR65B9b-257" style="edgeStyle=orthogonalEdgeStyle;rounded=0;orthogonalLoop=1;jettySize=auto;html=1;endArrow=none;endFill=0;" edge="1" parent="1" source="ICw0-tsvLoCsqjR65B9b-258">
          <mxGeometry relative="1" as="geometry">
            <mxPoint x="1280" y="1710" as="targetPoint" />
          </mxGeometry>
        </mxCell>
        <mxCell id="ICw0-tsvLoCsqjR65B9b-258" value="max_weight" style="ellipse;whiteSpace=wrap;html=1;align=center;" vertex="1" parent="1">
          <mxGeometry x="1300.0020689655173" y="1719.9979310344827" width="100" height="40" as="geometry" />
        </mxCell>
        <mxCell id="ICw0-tsvLoCsqjR65B9b-259" value="cancel_rule" style="ellipse;whiteSpace=wrap;html=1;align=center;" vertex="1" parent="1">
          <mxGeometry x="1030.0020689655173" y="1529.9979310344827" width="100" height="40" as="geometry" />
        </mxCell>
        <mxCell id="ICw0-tsvLoCsqjR65B9b-260" style="edgeStyle=orthogonalEdgeStyle;rounded=0;orthogonalLoop=1;jettySize=auto;html=1;entryX=0.168;entryY=1.065;entryDx=0;entryDy=0;entryPerimeter=0;endArrow=none;endFill=0;" edge="1" parent="1" source="ICw0-tsvLoCsqjR65B9b-259" target="ICw0-tsvLoCsqjR65B9b-210">
          <mxGeometry relative="1" as="geometry" />
        </mxCell>
        <mxCell id="ICw0-tsvLoCsqjR65B9b-261" style="edgeStyle=orthogonalEdgeStyle;rounded=0;orthogonalLoop=1;jettySize=auto;html=1;entryX=0;entryY=1;entryDx=0;entryDy=0;endArrow=none;endFill=0;" edge="1" parent="1" source="ICw0-tsvLoCsqjR65B9b-262" target="ICw0-tsvLoCsqjR65B9b-210">
          <mxGeometry relative="1" as="geometry" />
        </mxCell>
        <mxCell id="ICw0-tsvLoCsqjR65B9b-262" value="reserve_state" style="ellipse;whiteSpace=wrap;html=1;align=center;" vertex="1" parent="1">
          <mxGeometry x="1010.0020689655173" y="1579.9979310344827" width="100" height="40" as="geometry" />
        </mxCell>
        <mxCell id="ICw0-tsvLoCsqjR65B9b-268" style="edgeStyle=orthogonalEdgeStyle;rounded=0;orthogonalLoop=1;jettySize=auto;html=1;exitX=0.5;exitY=0;exitDx=0;exitDy=0;entryX=0.5;entryY=1;entryDx=0;entryDy=0;endArrow=ERmany;endFill=0;" edge="1" parent="1" source="ICw0-tsvLoCsqjR65B9b-266" target="ICw0-tsvLoCsqjR65B9b-178">
          <mxGeometry relative="1" as="geometry" />
        </mxCell>
        <mxCell id="ICw0-tsvLoCsqjR65B9b-266" value="reserves" style="shape=rhombus;perimeter=rhombusPerimeter;whiteSpace=wrap;html=1;align=center;" vertex="1" parent="1">
          <mxGeometry x="945" y="1240" width="90" height="40" as="geometry" />
        </mxCell>
        <mxCell id="ICw0-tsvLoCsqjR65B9b-394" style="edgeStyle=orthogonalEdgeStyle;rounded=0;orthogonalLoop=1;jettySize=auto;html=1;exitX=0;exitY=0.75;exitDx=0;exitDy=0;entryX=1;entryY=0.5;entryDx=0;entryDy=0;endArrow=none;endFill=0;" edge="1" parent="1" source="ICw0-tsvLoCsqjR65B9b-270" target="ICw0-tsvLoCsqjR65B9b-393">
          <mxGeometry relative="1" as="geometry" />
        </mxCell>
        <mxCell id="ICw0-tsvLoCsqjR65B9b-270" value="terminal" style="rounded=1;arcSize=10;whiteSpace=wrap;html=1;align=center;" vertex="1" parent="1">
          <mxGeometry x="505.0020689655173" y="1549.997931034483" width="100" height="40" as="geometry" />
        </mxCell>
        <mxCell id="ICw0-tsvLoCsqjR65B9b-271" value="" style="edgeStyle=orthogonalEdgeStyle;rounded=0;orthogonalLoop=1;jettySize=auto;html=1;endArrow=none;endFill=0;" edge="1" parent="1" source="ICw0-tsvLoCsqjR65B9b-273" target="ICw0-tsvLoCsqjR65B9b-270">
          <mxGeometry relative="1" as="geometry" />
        </mxCell>
        <mxCell id="ICw0-tsvLoCsqjR65B9b-272" value="" style="edgeStyle=orthogonalEdgeStyle;rounded=0;orthogonalLoop=1;jettySize=auto;html=1;endArrow=none;endFill=0;" edge="1" parent="1" source="ICw0-tsvLoCsqjR65B9b-273" target="ICw0-tsvLoCsqjR65B9b-278">
          <mxGeometry relative="1" as="geometry" />
        </mxCell>
        <mxCell id="ICw0-tsvLoCsqjR65B9b-273" value="" style="triangle;whiteSpace=wrap;html=1;rotation=-90;flipH=1;" vertex="1" parent="1">
          <mxGeometry x="540.0020689655173" y="1609.997931034483" width="30" height="50" as="geometry" />
        </mxCell>
        <mxCell id="ICw0-tsvLoCsqjR65B9b-274" style="edgeStyle=orthogonalEdgeStyle;rounded=0;orthogonalLoop=1;jettySize=auto;html=1;exitX=0.75;exitY=0;exitDx=0;exitDy=0;entryX=0;entryY=0.25;entryDx=0;entryDy=0;endArrow=none;endFill=0;" edge="1" parent="1" source="ICw0-tsvLoCsqjR65B9b-275" target="ICw0-tsvLoCsqjR65B9b-273">
          <mxGeometry relative="1" as="geometry">
            <Array as="points">
              <mxPoint x="495" y="1660" />
              <mxPoint x="530" y="1660" />
              <mxPoint x="530" y="1643" />
            </Array>
          </mxGeometry>
        </mxCell>
        <mxCell id="ICw0-tsvLoCsqjR65B9b-275" value="bus_terminal" style="rounded=1;arcSize=10;whiteSpace=wrap;html=1;align=center;" vertex="1" parent="1">
          <mxGeometry x="430.0020689655173" y="1659.997931034483" width="100" height="40" as="geometry" />
        </mxCell>
        <mxCell id="ICw0-tsvLoCsqjR65B9b-276" style="edgeStyle=orthogonalEdgeStyle;rounded=0;orthogonalLoop=1;jettySize=auto;html=1;exitX=0.25;exitY=0;exitDx=0;exitDy=0;entryX=0;entryY=0.75;entryDx=0;entryDy=0;endArrow=none;endFill=0;" edge="1" parent="1" source="ICw0-tsvLoCsqjR65B9b-277" target="ICw0-tsvLoCsqjR65B9b-273">
          <mxGeometry relative="1" as="geometry">
            <Array as="points">
              <mxPoint x="615" y="1660" />
              <mxPoint x="600" y="1660" />
              <mxPoint x="600" y="1643" />
            </Array>
          </mxGeometry>
        </mxCell>
        <mxCell id="ICw0-tsvLoCsqjR65B9b-277" value="train_terminal" style="rounded=1;arcSize=10;whiteSpace=wrap;html=1;align=center;" vertex="1" parent="1">
          <mxGeometry x="590.0020689655173" y="1659.997931034483" width="100" height="40" as="geometry" />
        </mxCell>
        <mxCell id="ICw0-tsvLoCsqjR65B9b-278" value="air_terminal" style="rounded=1;arcSize=10;whiteSpace=wrap;html=1;align=center;" vertex="1" parent="1">
          <mxGeometry x="505.0020689655173" y="1719.997931034483" width="100" height="40" as="geometry" />
        </mxCell>
        <mxCell id="ICw0-tsvLoCsqjR65B9b-279" value="location" style="ellipse;whiteSpace=wrap;html=1;align=center;" vertex="1" parent="1">
          <mxGeometry x="450.0020689655173" y="1479.997931034483" width="100" height="40" as="geometry" />
        </mxCell>
        <mxCell id="ICw0-tsvLoCsqjR65B9b-280" value="country" style="ellipse;whiteSpace=wrap;html=1;align=center;dashed=1;" vertex="1" parent="1">
          <mxGeometry x="560.0020689655173" y="1479.997931034483" width="100" height="40" as="geometry" />
        </mxCell>
        <mxCell id="ICw0-tsvLoCsqjR65B9b-281" style="edgeStyle=orthogonalEdgeStyle;rounded=0;orthogonalLoop=1;jettySize=auto;html=1;entryX=0.916;entryY=0.005;entryDx=0;entryDy=0;entryPerimeter=0;endArrow=none;endFill=0;" edge="1" parent="1" source="ICw0-tsvLoCsqjR65B9b-280" target="ICw0-tsvLoCsqjR65B9b-270">
          <mxGeometry relative="1" as="geometry" />
        </mxCell>
        <mxCell id="ICw0-tsvLoCsqjR65B9b-282" style="edgeStyle=orthogonalEdgeStyle;rounded=0;orthogonalLoop=1;jettySize=auto;html=1;entryX=0.062;entryY=-0.047;entryDx=0;entryDy=0;entryPerimeter=0;endArrow=none;endFill=0;" edge="1" parent="1" source="ICw0-tsvLoCsqjR65B9b-279" target="ICw0-tsvLoCsqjR65B9b-270">
          <mxGeometry relative="1" as="geometry" />
        </mxCell>
        <mxCell id="ICw0-tsvLoCsqjR65B9b-283" value="train_type" style="ellipse;whiteSpace=wrap;html=1;align=center;" vertex="1" parent="1">
          <mxGeometry x="630.0020689655173" y="1719.997931034483" width="100" height="40" as="geometry" />
        </mxCell>
        <mxCell id="ICw0-tsvLoCsqjR65B9b-284" style="edgeStyle=orthogonalEdgeStyle;rounded=0;orthogonalLoop=1;jettySize=auto;html=1;entryX=0.072;entryY=0.191;entryDx=0;entryDy=0;entryPerimeter=0;endArrow=none;endFill=0;" edge="1" parent="1" source="ICw0-tsvLoCsqjR65B9b-277" target="ICw0-tsvLoCsqjR65B9b-283">
          <mxGeometry relative="1" as="geometry" />
        </mxCell>
        <mxCell id="ICw0-tsvLoCsqjR65B9b-288" style="edgeStyle=orthogonalEdgeStyle;rounded=0;orthogonalLoop=1;jettySize=auto;html=1;exitX=1;exitY=0.5;exitDx=0;exitDy=0;endArrow=ERmany;endFill=0;" edge="1" parent="1" source="ICw0-tsvLoCsqjR65B9b-286">
          <mxGeometry relative="1" as="geometry">
            <mxPoint x="1200" y="1510" as="targetPoint" />
          </mxGeometry>
        </mxCell>
        <mxCell id="ICw0-tsvLoCsqjR65B9b-289" style="edgeStyle=orthogonalEdgeStyle;rounded=0;orthogonalLoop=1;jettySize=auto;html=1;entryX=1;entryY=0.5;entryDx=0;entryDy=0;endArrow=ERmany;endFill=0;" edge="1" parent="1" source="ICw0-tsvLoCsqjR65B9b-286" target="ICw0-tsvLoCsqjR65B9b-270">
          <mxGeometry relative="1" as="geometry" />
        </mxCell>
        <mxCell id="ICw0-tsvLoCsqjR65B9b-286" value="has" style="shape=rhombus;perimeter=rhombusPerimeter;whiteSpace=wrap;html=1;align=center;" vertex="1" parent="1">
          <mxGeometry x="805" y="1510" width="90" height="40" as="geometry" />
        </mxCell>
        <mxCell id="ICw0-tsvLoCsqjR65B9b-396" style="edgeStyle=orthogonalEdgeStyle;rounded=0;orthogonalLoop=1;jettySize=auto;html=1;exitX=0;exitY=0.25;exitDx=0;exitDy=0;entryX=1;entryY=0.5;entryDx=0;entryDy=0;" edge="1" parent="1" source="ICw0-tsvLoCsqjR65B9b-290" target="ICw0-tsvLoCsqjR65B9b-395">
          <mxGeometry relative="1" as="geometry" />
        </mxCell>
        <mxCell id="ICw0-tsvLoCsqjR65B9b-290" value="survey" style="rounded=1;arcSize=10;whiteSpace=wrap;html=1;align=center;" vertex="1" parent="1">
          <mxGeometry x="375.0020689655173" y="1214.997931034483" width="100" height="40" as="geometry" />
        </mxCell>
        <mxCell id="ICw0-tsvLoCsqjR65B9b-291" style="edgeStyle=orthogonalEdgeStyle;rounded=0;orthogonalLoop=1;jettySize=auto;html=1;entryX=0;entryY=0.75;entryDx=0;entryDy=0;endArrow=none;endFill=0;" edge="1" parent="1" source="ICw0-tsvLoCsqjR65B9b-292" target="ICw0-tsvLoCsqjR65B9b-290">
          <mxGeometry relative="1" as="geometry" />
        </mxCell>
        <mxCell id="ICw0-tsvLoCsqjR65B9b-292" value="score" style="ellipse;whiteSpace=wrap;html=1;align=center;" vertex="1" parent="1">
          <mxGeometry x="225.0020689655173" y="1124.997931034483" width="100" height="40" as="geometry" />
        </mxCell>
        <mxCell id="ICw0-tsvLoCsqjR65B9b-293" style="edgeStyle=orthogonalEdgeStyle;rounded=0;orthogonalLoop=1;jettySize=auto;html=1;entryX=1;entryY=0.75;entryDx=0;entryDy=0;endArrow=none;endFill=0;" edge="1" parent="1" source="ICw0-tsvLoCsqjR65B9b-294" target="ICw0-tsvLoCsqjR65B9b-290">
          <mxGeometry relative="1" as="geometry" />
        </mxCell>
        <mxCell id="ICw0-tsvLoCsqjR65B9b-294" value="comment" style="ellipse;whiteSpace=wrap;html=1;align=center;" vertex="1" parent="1">
          <mxGeometry x="475.0020689655173" y="1124.997931034483" width="100" height="40" as="geometry" />
        </mxCell>
        <mxCell id="ICw0-tsvLoCsqjR65B9b-295" style="edgeStyle=orthogonalEdgeStyle;rounded=0;orthogonalLoop=1;jettySize=auto;html=1;exitX=0.75;exitY=0;exitDx=0;exitDy=0;entryX=0.5;entryY=1;entryDx=0;entryDy=0;endArrow=none;endFill=0;" edge="1" parent="1" source="ICw0-tsvLoCsqjR65B9b-296" target="ICw0-tsvLoCsqjR65B9b-300">
          <mxGeometry relative="1" as="geometry">
            <mxPoint x="412.5" y="1325" as="targetPoint" />
          </mxGeometry>
        </mxCell>
        <mxCell id="ICw0-tsvLoCsqjR65B9b-296" value="trip_survey" style="rounded=1;arcSize=10;whiteSpace=wrap;html=1;align=center;" vertex="1" parent="1">
          <mxGeometry x="310" y="1355" width="100" height="40" as="geometry" />
        </mxCell>
        <mxCell id="ICw0-tsvLoCsqjR65B9b-297" style="edgeStyle=orthogonalEdgeStyle;rounded=0;orthogonalLoop=1;jettySize=auto;html=1;exitX=0.25;exitY=0;exitDx=0;exitDy=0;entryX=0.5;entryY=0.292;entryDx=0;entryDy=0;endArrow=none;endFill=0;entryPerimeter=0;" edge="1" parent="1" source="ICw0-tsvLoCsqjR65B9b-298" target="ICw0-tsvLoCsqjR65B9b-300">
          <mxGeometry relative="1" as="geometry">
            <mxPoint x="437.5" y="1325" as="targetPoint" />
          </mxGeometry>
        </mxCell>
        <mxCell id="ICw0-tsvLoCsqjR65B9b-298" value="hotel_survey" style="rounded=1;arcSize=10;whiteSpace=wrap;html=1;align=center;" vertex="1" parent="1">
          <mxGeometry x="440" y="1355" width="100" height="40" as="geometry" />
        </mxCell>
        <mxCell id="ICw0-tsvLoCsqjR65B9b-299" style="edgeStyle=orthogonalEdgeStyle;rounded=0;orthogonalLoop=1;jettySize=auto;html=1;exitX=0;exitY=0.5;exitDx=0;exitDy=0;entryX=0.5;entryY=1;entryDx=0;entryDy=0;endArrow=none;endFill=0;" edge="1" parent="1" source="ICw0-tsvLoCsqjR65B9b-300" target="ICw0-tsvLoCsqjR65B9b-290">
          <mxGeometry relative="1" as="geometry" />
        </mxCell>
        <mxCell id="ICw0-tsvLoCsqjR65B9b-300" value="" style="triangle;whiteSpace=wrap;html=1;rotation=90;" vertex="1" parent="1">
          <mxGeometry x="410" y="1285" width="30" height="60" as="geometry" />
        </mxCell>
        <mxCell id="ICw0-tsvLoCsqjR65B9b-304" style="edgeStyle=orthogonalEdgeStyle;rounded=0;orthogonalLoop=1;jettySize=auto;html=1;exitX=0.5;exitY=1;exitDx=0;exitDy=0;entryX=0.5;entryY=0;entryDx=0;entryDy=0;endArrow=none;endFill=0;" edge="1" parent="1" source="ICw0-tsvLoCsqjR65B9b-301" target="ICw0-tsvLoCsqjR65B9b-302">
          <mxGeometry relative="1" as="geometry" />
        </mxCell>
        <mxCell id="ICw0-tsvLoCsqjR65B9b-301" value="user" style="rounded=1;arcSize=10;whiteSpace=wrap;html=1;align=center;fillColor=#f8cecc;strokeColor=#b85450;" vertex="1" parent="1">
          <mxGeometry x="370" y="1070" width="100" height="40" as="geometry" />
        </mxCell>
        <mxCell id="ICw0-tsvLoCsqjR65B9b-305" style="edgeStyle=orthogonalEdgeStyle;rounded=0;orthogonalLoop=1;jettySize=auto;html=1;exitX=0.5;exitY=1;exitDx=0;exitDy=0;entryX=0.5;entryY=0;entryDx=0;entryDy=0;endArrow=ERmany;endFill=0;" edge="1" parent="1" source="ICw0-tsvLoCsqjR65B9b-302" target="ICw0-tsvLoCsqjR65B9b-290">
          <mxGeometry relative="1" as="geometry" />
        </mxCell>
        <mxCell id="ICw0-tsvLoCsqjR65B9b-302" value="evaluate" style="shape=rhombus;perimeter=rhombusPerimeter;whiteSpace=wrap;html=1;align=center;" vertex="1" parent="1">
          <mxGeometry x="375" y="1150" width="90" height="40" as="geometry" />
        </mxCell>
        <mxCell id="ICw0-tsvLoCsqjR65B9b-310" style="edgeStyle=orthogonalEdgeStyle;rounded=0;orthogonalLoop=1;jettySize=auto;html=1;exitX=1;exitY=0.5;exitDx=0;exitDy=0;entryX=0;entryY=0.5;entryDx=0;entryDy=0;endArrow=none;endFill=0;" edge="1" parent="1" source="ICw0-tsvLoCsqjR65B9b-306" target="ICw0-tsvLoCsqjR65B9b-309">
          <mxGeometry relative="1" as="geometry" />
        </mxCell>
        <mxCell id="ICw0-tsvLoCsqjR65B9b-311" style="edgeStyle=orthogonalEdgeStyle;rounded=0;orthogonalLoop=1;jettySize=auto;html=1;exitX=0;exitY=0.5;exitDx=0;exitDy=0;entryX=0.25;entryY=1;entryDx=0;entryDy=0;endArrow=ERmany;endFill=0;" edge="1" parent="1" source="ICw0-tsvLoCsqjR65B9b-306" target="ICw0-tsvLoCsqjR65B9b-298">
          <mxGeometry relative="1" as="geometry" />
        </mxCell>
        <mxCell id="ICw0-tsvLoCsqjR65B9b-306" value="evaluate" style="shape=rhombus;perimeter=rhombusPerimeter;whiteSpace=wrap;html=1;align=center;" vertex="1" parent="1">
          <mxGeometry x="505" y="1410" width="90" height="40" as="geometry" />
        </mxCell>
        <mxCell id="ICw0-tsvLoCsqjR65B9b-314" style="edgeStyle=orthogonalEdgeStyle;rounded=0;orthogonalLoop=1;jettySize=auto;html=1;exitX=0;exitY=0.5;exitDx=0;exitDy=0;entryX=1;entryY=0.5;entryDx=0;entryDy=0;endArrow=none;endFill=0;" edge="1" parent="1" source="ICw0-tsvLoCsqjR65B9b-308" target="ICw0-tsvLoCsqjR65B9b-313">
          <mxGeometry relative="1" as="geometry" />
        </mxCell>
        <mxCell id="ICw0-tsvLoCsqjR65B9b-308" value="evaluate" style="shape=rhombus;perimeter=rhombusPerimeter;whiteSpace=wrap;html=1;align=center;" vertex="1" parent="1">
          <mxGeometry x="215" y="1410" width="90" height="40" as="geometry" />
        </mxCell>
        <mxCell id="ICw0-tsvLoCsqjR65B9b-309" value="hotel" style="rounded=1;arcSize=10;whiteSpace=wrap;html=1;align=center;fillColor=#f8cecc;strokeColor=#b85450;" vertex="1" parent="1">
          <mxGeometry x="640" y="1410" width="100" height="40" as="geometry" />
        </mxCell>
        <mxCell id="ICw0-tsvLoCsqjR65B9b-312" style="edgeStyle=orthogonalEdgeStyle;rounded=0;orthogonalLoop=1;jettySize=auto;html=1;exitX=1;exitY=0.5;exitDx=0;exitDy=0;entryX=0.448;entryY=0.97;entryDx=0;entryDy=0;entryPerimeter=0;endArrow=ERmany;endFill=0;" edge="1" parent="1" source="ICw0-tsvLoCsqjR65B9b-308" target="ICw0-tsvLoCsqjR65B9b-296">
          <mxGeometry relative="1" as="geometry" />
        </mxCell>
        <mxCell id="ICw0-tsvLoCsqjR65B9b-313" value="trip" style="rounded=1;arcSize=10;whiteSpace=wrap;html=1;align=center;fillColor=#f8cecc;strokeColor=#b85450;" vertex="1" parent="1">
          <mxGeometry x="60" y="1410" width="100" height="40" as="geometry" />
        </mxCell>
        <mxCell id="ICw0-tsvLoCsqjR65B9b-318" style="edgeStyle=orthogonalEdgeStyle;rounded=0;orthogonalLoop=1;jettySize=auto;html=1;entryX=0;entryY=0.5;entryDx=0;entryDy=0;" edge="1" parent="1" source="ICw0-tsvLoCsqjR65B9b-316" target="ICw0-tsvLoCsqjR65B9b-58">
          <mxGeometry relative="1" as="geometry" />
        </mxCell>
        <mxCell id="ICw0-tsvLoCsqjR65B9b-316" value="paid" style="ellipse;whiteSpace=wrap;html=1;align=center;dashed=1;" vertex="1" parent="1">
          <mxGeometry x="-140" y="410" width="100" height="40" as="geometry" />
        </mxCell>
        <mxCell id="ICw0-tsvLoCsqjR65B9b-319" value="company" style="rounded=1;arcSize=10;whiteSpace=wrap;html=1;align=center;" vertex="1" parent="1">
          <mxGeometry x="1825.0020689655173" y="1319.997931034483" width="100" height="40" as="geometry" />
        </mxCell>
        <mxCell id="ICw0-tsvLoCsqjR65B9b-320" style="edgeStyle=orthogonalEdgeStyle;rounded=0;orthogonalLoop=1;jettySize=auto;html=1;entryX=0;entryY=0.5;entryDx=0;entryDy=0;endArrow=none;endFill=0;" edge="1" parent="1" source="ICw0-tsvLoCsqjR65B9b-321" target="ICw0-tsvLoCsqjR65B9b-319">
          <mxGeometry relative="1" as="geometry" />
        </mxCell>
        <mxCell id="ICw0-tsvLoCsqjR65B9b-321" value="score" style="ellipse;whiteSpace=wrap;html=1;align=center;" vertex="1" parent="1">
          <mxGeometry x="1680.0020689655173" y="1319.997931034483" width="100" height="40" as="geometry" />
        </mxCell>
        <mxCell id="ICw0-tsvLoCsqjR65B9b-322" style="edgeStyle=orthogonalEdgeStyle;rounded=0;orthogonalLoop=1;jettySize=auto;html=1;entryX=1;entryY=0.5;entryDx=0;entryDy=0;endArrow=none;endFill=0;exitX=0.5;exitY=1;exitDx=0;exitDy=0;" edge="1" parent="1" source="ICw0-tsvLoCsqjR65B9b-319" target="ICw0-tsvLoCsqjR65B9b-323">
          <mxGeometry relative="1" as="geometry">
            <mxPoint x="1875" y="1370" as="sourcePoint" />
            <Array as="points">
              <mxPoint x="1875" y="1395" />
              <mxPoint x="1860" y="1395" />
            </Array>
          </mxGeometry>
        </mxCell>
        <mxCell id="ICw0-tsvLoCsqjR65B9b-323" value="" style="triangle;whiteSpace=wrap;html=1;rotation=-90;flipH=1;" vertex="1" parent="1">
          <mxGeometry x="1845.0020689655173" y="1409.997931034483" width="30" height="50" as="geometry" />
        </mxCell>
        <mxCell id="ICw0-tsvLoCsqjR65B9b-324" value="company_ground" style="rounded=1;arcSize=10;whiteSpace=wrap;html=1;align=center;" vertex="1" parent="1">
          <mxGeometry x="1745.0020689655173" y="1469.997931034483" width="100" height="40" as="geometry" />
        </mxCell>
        <mxCell id="ICw0-tsvLoCsqjR65B9b-325" value="company_air" style="rounded=1;arcSize=10;whiteSpace=wrap;html=1;align=center;" vertex="1" parent="1">
          <mxGeometry x="1880.0020689655173" y="1469.997931034483" width="100" height="40" as="geometry" />
        </mxCell>
        <mxCell id="ICw0-tsvLoCsqjR65B9b-326" style="edgeStyle=orthogonalEdgeStyle;rounded=0;orthogonalLoop=1;jettySize=auto;html=1;entryX=0.488;entryY=0.157;entryDx=0;entryDy=0;entryPerimeter=0;endArrow=none;endFill=0;" edge="1" parent="1" source="ICw0-tsvLoCsqjR65B9b-324" target="ICw0-tsvLoCsqjR65B9b-323">
          <mxGeometry relative="1" as="geometry" />
        </mxCell>
        <mxCell id="ICw0-tsvLoCsqjR65B9b-327" style="edgeStyle=orthogonalEdgeStyle;rounded=0;orthogonalLoop=1;jettySize=auto;html=1;entryX=0.335;entryY=0.907;entryDx=0;entryDy=0;entryPerimeter=0;endArrow=none;endFill=0;" edge="1" parent="1" source="ICw0-tsvLoCsqjR65B9b-325" target="ICw0-tsvLoCsqjR65B9b-323">
          <mxGeometry relative="1" as="geometry" />
        </mxCell>
        <mxCell id="ICw0-tsvLoCsqjR65B9b-328" style="edgeStyle=orthogonalEdgeStyle;rounded=0;orthogonalLoop=1;jettySize=auto;html=1;entryX=0.75;entryY=1;entryDx=0;entryDy=0;endArrow=none;endFill=0;" edge="1" parent="1" source="ICw0-tsvLoCsqjR65B9b-329" target="ICw0-tsvLoCsqjR65B9b-325">
          <mxGeometry relative="1" as="geometry">
            <Array as="points">
              <mxPoint x="1960" y="1540" />
              <mxPoint x="1960" y="1530" />
              <mxPoint x="1955" y="1530" />
            </Array>
          </mxGeometry>
        </mxCell>
        <mxCell id="ICw0-tsvLoCsqjR65B9b-329" value="origin" style="ellipse;whiteSpace=wrap;html=1;align=center;" vertex="1" parent="1">
          <mxGeometry x="1955.0020689655173" y="1519.997931034483" width="100" height="40" as="geometry" />
        </mxCell>
        <mxCell id="ICw0-tsvLoCsqjR65B9b-331" style="edgeStyle=orthogonalEdgeStyle;rounded=0;orthogonalLoop=1;jettySize=auto;html=1;exitX=1;exitY=0.5;exitDx=0;exitDy=0;entryX=0.5;entryY=0;entryDx=0;entryDy=0;endArrow=none;endFill=0;" edge="1" parent="1" source="ICw0-tsvLoCsqjR65B9b-330" target="ICw0-tsvLoCsqjR65B9b-319">
          <mxGeometry relative="1" as="geometry" />
        </mxCell>
        <mxCell id="ICw0-tsvLoCsqjR65B9b-330" value="provide" style="shape=rhombus;perimeter=rhombusPerimeter;whiteSpace=wrap;html=1;align=center;" vertex="1" parent="1">
          <mxGeometry x="1520" y="1270" width="90" height="40" as="geometry" />
        </mxCell>
        <mxCell id="ICw0-tsvLoCsqjR65B9b-332" style="edgeStyle=orthogonalEdgeStyle;rounded=0;orthogonalLoop=1;jettySize=auto;html=1;entryX=0.874;entryY=-0.052;entryDx=0;entryDy=0;entryPerimeter=0;endArrow=ERmany;endFill=0;" edge="1" parent="1" source="ICw0-tsvLoCsqjR65B9b-330" target="ICw0-tsvLoCsqjR65B9b-210">
          <mxGeometry relative="1" as="geometry" />
        </mxCell>
        <mxCell id="ICw0-tsvLoCsqjR65B9b-333" value="discount_code" style="rounded=1;whiteSpace=wrap;html=1;" vertex="1" parent="1">
          <mxGeometry x="1990" y="1730" width="120" height="60" as="geometry" />
        </mxCell>
        <mxCell id="ICw0-tsvLoCsqjR65B9b-334" value="code" style="ellipse;whiteSpace=wrap;html=1;" vertex="1" parent="1">
          <mxGeometry x="2190" y="1695" width="120" height="80" as="geometry" />
        </mxCell>
        <mxCell id="ICw0-tsvLoCsqjR65B9b-335" value="expiration_date" style="ellipse;whiteSpace=wrap;html=1;" vertex="1" parent="1">
          <mxGeometry x="1960" y="1610" width="120" height="80" as="geometry" />
        </mxCell>
        <mxCell id="ICw0-tsvLoCsqjR65B9b-336" value="max_number_of_usage" style="ellipse;whiteSpace=wrap;html=1;" vertex="1" parent="1">
          <mxGeometry x="1820" y="1640" width="140" height="80" as="geometry" />
        </mxCell>
        <mxCell id="ICw0-tsvLoCsqjR65B9b-337" value="city" style="ellipse;whiteSpace=wrap;html=1;" vertex="1" parent="1">
          <mxGeometry x="2170" y="1780" width="120" height="80" as="geometry" />
        </mxCell>
        <mxCell id="ICw0-tsvLoCsqjR65B9b-338" value="service_type" style="ellipse;whiteSpace=wrap;html=1;" vertex="1" parent="1">
          <mxGeometry x="1790" y="1730" width="120" height="80" as="geometry" />
        </mxCell>
        <mxCell id="ICw0-tsvLoCsqjR65B9b-339" value="" style="triangle;whiteSpace=wrap;html=1;rotation=90;" vertex="1" parent="1">
          <mxGeometry x="2020" y="1850" width="60" height="80" as="geometry" />
        </mxCell>
        <mxCell id="ICw0-tsvLoCsqjR65B9b-340" value="constant_discount" style="rounded=1;whiteSpace=wrap;html=1;" vertex="1" parent="1">
          <mxGeometry x="2080" y="1940" width="120" height="60" as="geometry" />
        </mxCell>
        <mxCell id="ICw0-tsvLoCsqjR65B9b-341" value="percent_discount" style="rounded=1;whiteSpace=wrap;html=1;" vertex="1" parent="1">
          <mxGeometry x="1900" y="1940" width="120" height="60" as="geometry" />
        </mxCell>
        <mxCell id="ICw0-tsvLoCsqjR65B9b-342" value="amount" style="ellipse;whiteSpace=wrap;html=1;" vertex="1" parent="1">
          <mxGeometry x="2080" y="2030" width="120" height="80" as="geometry" />
        </mxCell>
        <mxCell id="ICw0-tsvLoCsqjR65B9b-343" value="percentage" style="ellipse;whiteSpace=wrap;html=1;" vertex="1" parent="1">
          <mxGeometry x="1900" y="2030" width="120" height="80" as="geometry" />
        </mxCell>
        <mxCell id="ICw0-tsvLoCsqjR65B9b-344" value="" style="endArrow=none;html=1;rounded=0;exitX=0.5;exitY=1;exitDx=0;exitDy=0;entryX=0;entryY=0.5;entryDx=0;entryDy=0;" edge="1" parent="1" source="ICw0-tsvLoCsqjR65B9b-333" target="ICw0-tsvLoCsqjR65B9b-339">
          <mxGeometry width="50" height="50" relative="1" as="geometry">
            <mxPoint x="2030" y="1820" as="sourcePoint" />
            <mxPoint x="2080" y="1770" as="targetPoint" />
          </mxGeometry>
        </mxCell>
        <mxCell id="ICw0-tsvLoCsqjR65B9b-345" value="" style="endArrow=none;html=1;rounded=0;exitX=0.5;exitY=1;exitDx=0;exitDy=0;entryX=0.75;entryY=0;entryDx=0;entryDy=0;" edge="1" parent="1" source="ICw0-tsvLoCsqjR65B9b-339" target="ICw0-tsvLoCsqjR65B9b-341">
          <mxGeometry width="50" height="50" relative="1" as="geometry">
            <mxPoint x="2030" y="1820" as="sourcePoint" />
            <mxPoint x="2080" y="1770" as="targetPoint" />
          </mxGeometry>
        </mxCell>
        <mxCell id="ICw0-tsvLoCsqjR65B9b-346" value="" style="endArrow=none;html=1;rounded=0;exitX=0.5;exitY=0;exitDx=0;exitDy=0;entryX=0.25;entryY=0;entryDx=0;entryDy=0;" edge="1" parent="1" source="ICw0-tsvLoCsqjR65B9b-339" target="ICw0-tsvLoCsqjR65B9b-340">
          <mxGeometry width="50" height="50" relative="1" as="geometry">
            <mxPoint x="2030" y="1820" as="sourcePoint" />
            <mxPoint x="2080" y="1770" as="targetPoint" />
          </mxGeometry>
        </mxCell>
        <mxCell id="ICw0-tsvLoCsqjR65B9b-347" value="" style="endArrow=none;html=1;rounded=0;entryX=0.5;entryY=1;entryDx=0;entryDy=0;exitX=0.5;exitY=0;exitDx=0;exitDy=0;" edge="1" parent="1" source="ICw0-tsvLoCsqjR65B9b-343" target="ICw0-tsvLoCsqjR65B9b-341">
          <mxGeometry width="50" height="50" relative="1" as="geometry">
            <mxPoint x="2030" y="1850" as="sourcePoint" />
            <mxPoint x="2080" y="1800" as="targetPoint" />
          </mxGeometry>
        </mxCell>
        <mxCell id="ICw0-tsvLoCsqjR65B9b-348" value="" style="endArrow=none;html=1;rounded=0;exitX=0.5;exitY=1;exitDx=0;exitDy=0;entryX=0.5;entryY=0;entryDx=0;entryDy=0;" edge="1" parent="1" source="ICw0-tsvLoCsqjR65B9b-340" target="ICw0-tsvLoCsqjR65B9b-342">
          <mxGeometry width="50" height="50" relative="1" as="geometry">
            <mxPoint x="2120" y="2050" as="sourcePoint" />
            <mxPoint x="2080" y="1990" as="targetPoint" />
          </mxGeometry>
        </mxCell>
        <mxCell id="ICw0-tsvLoCsqjR65B9b-349" value="min_cost" style="ellipse;whiteSpace=wrap;html=1;" vertex="1" parent="1">
          <mxGeometry x="2220" y="2020" width="120" height="80" as="geometry" />
        </mxCell>
        <mxCell id="ICw0-tsvLoCsqjR65B9b-350" value="" style="endArrow=none;html=1;rounded=0;entryX=1;entryY=1;entryDx=0;entryDy=0;exitX=0;exitY=0;exitDx=0;exitDy=0;" edge="1" parent="1" source="ICw0-tsvLoCsqjR65B9b-349" target="ICw0-tsvLoCsqjR65B9b-340">
          <mxGeometry width="50" height="50" relative="1" as="geometry">
            <mxPoint x="2030" y="2040" as="sourcePoint" />
            <mxPoint x="2080" y="1990" as="targetPoint" />
          </mxGeometry>
        </mxCell>
        <mxCell id="ICw0-tsvLoCsqjR65B9b-351" value="&lt;u&gt;discount_code_id&lt;/u&gt;" style="ellipse;whiteSpace=wrap;html=1;" vertex="1" parent="1">
          <mxGeometry x="2110" y="1850" width="120" height="80" as="geometry" />
        </mxCell>
        <mxCell id="ICw0-tsvLoCsqjR65B9b-352" value="" style="endArrow=none;html=1;rounded=0;exitX=1;exitY=0.25;exitDx=0;exitDy=0;entryX=0;entryY=0.5;entryDx=0;entryDy=0;" edge="1" parent="1" source="ICw0-tsvLoCsqjR65B9b-333" target="ICw0-tsvLoCsqjR65B9b-337">
          <mxGeometry width="50" height="50" relative="1" as="geometry">
            <mxPoint x="2030" y="1720" as="sourcePoint" />
            <mxPoint x="2080" y="1670" as="targetPoint" />
          </mxGeometry>
        </mxCell>
        <mxCell id="ICw0-tsvLoCsqjR65B9b-353" value="" style="endArrow=none;html=1;rounded=0;exitX=0.75;exitY=0;exitDx=0;exitDy=0;entryX=0;entryY=1;entryDx=0;entryDy=0;" edge="1" parent="1" source="ICw0-tsvLoCsqjR65B9b-333" target="ICw0-tsvLoCsqjR65B9b-334">
          <mxGeometry width="50" height="50" relative="1" as="geometry">
            <mxPoint x="2030" y="1720" as="sourcePoint" />
            <mxPoint x="2080" y="1670" as="targetPoint" />
          </mxGeometry>
        </mxCell>
        <mxCell id="ICw0-tsvLoCsqjR65B9b-354" value="" style="endArrow=none;html=1;rounded=0;exitX=0.25;exitY=0;exitDx=0;exitDy=0;entryX=0.5;entryY=1;entryDx=0;entryDy=0;" edge="1" parent="1" source="ICw0-tsvLoCsqjR65B9b-333" target="ICw0-tsvLoCsqjR65B9b-335">
          <mxGeometry width="50" height="50" relative="1" as="geometry">
            <mxPoint x="2030" y="1720" as="sourcePoint" />
            <mxPoint x="2080" y="1670" as="targetPoint" />
          </mxGeometry>
        </mxCell>
        <mxCell id="ICw0-tsvLoCsqjR65B9b-355" value="" style="endArrow=none;html=1;rounded=0;exitX=0;exitY=0;exitDx=0;exitDy=0;entryX=1;entryY=1;entryDx=0;entryDy=0;" edge="1" parent="1" source="ICw0-tsvLoCsqjR65B9b-333" target="ICw0-tsvLoCsqjR65B9b-336">
          <mxGeometry width="50" height="50" relative="1" as="geometry">
            <mxPoint x="2030" y="1720" as="sourcePoint" />
            <mxPoint x="2080" y="1670" as="targetPoint" />
          </mxGeometry>
        </mxCell>
        <mxCell id="ICw0-tsvLoCsqjR65B9b-356" value="" style="endArrow=none;html=1;rounded=0;exitX=1;exitY=0.5;exitDx=0;exitDy=0;entryX=0;entryY=0.5;entryDx=0;entryDy=0;" edge="1" parent="1" source="ICw0-tsvLoCsqjR65B9b-338" target="ICw0-tsvLoCsqjR65B9b-333">
          <mxGeometry width="50" height="50" relative="1" as="geometry">
            <mxPoint x="2030" y="1720" as="sourcePoint" />
            <mxPoint x="2080" y="1670" as="targetPoint" />
          </mxGeometry>
        </mxCell>
        <mxCell id="ICw0-tsvLoCsqjR65B9b-357" value="" style="endArrow=none;html=1;rounded=0;exitX=1;exitY=1;exitDx=0;exitDy=0;entryX=0;entryY=0;entryDx=0;entryDy=0;" edge="1" parent="1" source="ICw0-tsvLoCsqjR65B9b-333" target="ICw0-tsvLoCsqjR65B9b-351">
          <mxGeometry width="50" height="50" relative="1" as="geometry">
            <mxPoint x="2030" y="1720" as="sourcePoint" />
            <mxPoint x="2080" y="1670" as="targetPoint" />
          </mxGeometry>
        </mxCell>
        <mxCell id="ICw0-tsvLoCsqjR65B9b-358" value="state" style="ellipse;whiteSpace=wrap;html=1;" vertex="1" parent="1">
          <mxGeometry x="1840" y="1810" width="120" height="80" as="geometry" />
        </mxCell>
        <mxCell id="ICw0-tsvLoCsqjR65B9b-359" value="" style="endArrow=none;html=1;rounded=0;exitX=1;exitY=0;exitDx=0;exitDy=0;entryX=0;entryY=1;entryDx=0;entryDy=0;" edge="1" parent="1" source="ICw0-tsvLoCsqjR65B9b-358" target="ICw0-tsvLoCsqjR65B9b-333">
          <mxGeometry width="50" height="50" relative="1" as="geometry">
            <mxPoint x="2030" y="1820" as="sourcePoint" />
            <mxPoint x="2080" y="1770" as="targetPoint" />
          </mxGeometry>
        </mxCell>
        <mxCell id="ICw0-tsvLoCsqjR65B9b-361" style="edgeStyle=orthogonalEdgeStyle;rounded=0;orthogonalLoop=1;jettySize=auto;html=1;exitX=0.5;exitY=0;exitDx=0;exitDy=0;entryX=0.5;entryY=1;entryDx=0;entryDy=0;" edge="1" parent="1" source="ICw0-tsvLoCsqjR65B9b-360" target="ICw0-tsvLoCsqjR65B9b-362">
          <mxGeometry relative="1" as="geometry">
            <mxPoint x="139.9565217391305" y="500" as="targetPoint" />
          </mxGeometry>
        </mxCell>
        <mxCell id="ICw0-tsvLoCsqjR65B9b-360" value="hotel" style="rounded=1;arcSize=10;whiteSpace=wrap;html=1;align=center;fillColor=#f8cecc;strokeColor=#b85450;" vertex="1" parent="1">
          <mxGeometry x="90" y="610" width="100" height="40" as="geometry" />
        </mxCell>
        <mxCell id="ICw0-tsvLoCsqjR65B9b-362" value="has" style="shape=rhombus;perimeter=rhombusPerimeter;whiteSpace=wrap;html=1;align=center;" vertex="1" parent="1">
          <mxGeometry x="100" y="460" width="90" height="40" as="geometry" />
        </mxCell>
        <mxCell id="ICw0-tsvLoCsqjR65B9b-363" style="edgeStyle=orthogonalEdgeStyle;rounded=0;orthogonalLoop=1;jettySize=auto;html=1;exitX=0.5;exitY=0;exitDx=0;exitDy=0;entryX=0.445;entryY=0.999;entryDx=0;entryDy=0;entryPerimeter=0;endArrow=ERmany;endFill=0;" edge="1" parent="1" source="ICw0-tsvLoCsqjR65B9b-362" target="ICw0-tsvLoCsqjR65B9b-57">
          <mxGeometry relative="1" as="geometry" />
        </mxCell>
        <mxCell id="ICw0-tsvLoCsqjR65B9b-366" style="edgeStyle=orthogonalEdgeStyle;rounded=0;orthogonalLoop=1;jettySize=auto;html=1;exitX=0.5;exitY=0;exitDx=0;exitDy=0;entryX=0.5;entryY=1;entryDx=0;entryDy=0;" edge="1" parent="1" source="ICw0-tsvLoCsqjR65B9b-364" target="ICw0-tsvLoCsqjR65B9b-365">
          <mxGeometry relative="1" as="geometry" />
        </mxCell>
        <mxCell id="ICw0-tsvLoCsqjR65B9b-364" value="company" style="rounded=1;arcSize=10;whiteSpace=wrap;html=1;align=center;fillColor=#f8cecc;strokeColor=#b85450;" vertex="1" parent="1">
          <mxGeometry x="215" y="620" width="100" height="40" as="geometry" />
        </mxCell>
        <mxCell id="ICw0-tsvLoCsqjR65B9b-365" value="has" style="shape=rhombus;perimeter=rhombusPerimeter;whiteSpace=wrap;html=1;align=center;" vertex="1" parent="1">
          <mxGeometry x="227.5" y="467.5" width="65" height="25" as="geometry" />
        </mxCell>
        <mxCell id="ICw0-tsvLoCsqjR65B9b-367" style="edgeStyle=orthogonalEdgeStyle;rounded=0;orthogonalLoop=1;jettySize=auto;html=1;exitX=0.5;exitY=0;exitDx=0;exitDy=0;entryX=0.305;entryY=0.971;entryDx=0;entryDy=0;entryPerimeter=0;endArrow=ERmany;endFill=0;" edge="1" parent="1" source="ICw0-tsvLoCsqjR65B9b-365" target="ICw0-tsvLoCsqjR65B9b-61">
          <mxGeometry relative="1" as="geometry" />
        </mxCell>
        <mxCell id="ICw0-tsvLoCsqjR65B9b-370" style="edgeStyle=orthogonalEdgeStyle;rounded=0;orthogonalLoop=1;jettySize=auto;html=1;exitX=0.5;exitY=0;exitDx=0;exitDy=0;endArrow=ERmany;endFill=0;" edge="1" parent="1" source="ICw0-tsvLoCsqjR65B9b-368">
          <mxGeometry relative="1" as="geometry">
            <mxPoint x="2205.2352941176473" y="1490" as="targetPoint" />
          </mxGeometry>
        </mxCell>
        <mxCell id="ICw0-tsvLoCsqjR65B9b-368" value="give/receive" style="shape=rhombus;perimeter=rhombusPerimeter;whiteSpace=wrap;html=1;align=center;" vertex="1" parent="1">
          <mxGeometry x="2160" y="1560" width="90" height="40" as="geometry" />
        </mxCell>
        <mxCell id="ICw0-tsvLoCsqjR65B9b-369" style="edgeStyle=orthogonalEdgeStyle;rounded=0;orthogonalLoop=1;jettySize=auto;html=1;exitX=0.5;exitY=1;exitDx=0;exitDy=0;entryX=0.615;entryY=-0.018;entryDx=0;entryDy=0;entryPerimeter=0;endArrow=ERmany;endFill=0;" edge="1" parent="1" source="ICw0-tsvLoCsqjR65B9b-368" target="ICw0-tsvLoCsqjR65B9b-333">
          <mxGeometry relative="1" as="geometry" />
        </mxCell>
        <mxCell id="ICw0-tsvLoCsqjR65B9b-372" value="user" style="rounded=1;arcSize=10;whiteSpace=wrap;html=1;align=center;fillColor=#f8cecc;strokeColor=#b85450;" vertex="1" parent="1">
          <mxGeometry x="2150" y="1450" width="100" height="40" as="geometry" />
        </mxCell>
        <mxCell id="ICw0-tsvLoCsqjR65B9b-373" value="ticket" style="rounded=1;whiteSpace=wrap;html=1;" vertex="1" parent="1">
          <mxGeometry x="2090" y="900" width="120" height="60" as="geometry" />
        </mxCell>
        <mxCell id="ICw0-tsvLoCsqjR65B9b-374" value="message" style="ellipse;whiteSpace=wrap;html=1;" vertex="1" parent="1">
          <mxGeometry x="2240" y="880" width="120" height="80" as="geometry" />
        </mxCell>
        <mxCell id="ICw0-tsvLoCsqjR65B9b-375" value="priority" style="ellipse;whiteSpace=wrap;html=1;" vertex="1" parent="1">
          <mxGeometry x="2140" y="990" width="120" height="80" as="geometry" />
        </mxCell>
        <mxCell id="ICw0-tsvLoCsqjR65B9b-376" value="type" style="ellipse;whiteSpace=wrap;html=1;" vertex="1" parent="1">
          <mxGeometry x="2000" y="980" width="120" height="80" as="geometry" />
        </mxCell>
        <mxCell id="ICw0-tsvLoCsqjR65B9b-377" value="&lt;u&gt;ticket_id&lt;/u&gt;" style="ellipse;whiteSpace=wrap;html=1;" vertex="1" parent="1">
          <mxGeometry x="1960" y="800" width="120" height="80" as="geometry" />
        </mxCell>
        <mxCell id="ICw0-tsvLoCsqjR65B9b-378" value="" style="endArrow=none;html=1;rounded=0;exitX=1;exitY=0.5;exitDx=0;exitDy=0;entryX=0;entryY=0.5;entryDx=0;entryDy=0;" edge="1" parent="1" source="ICw0-tsvLoCsqjR65B9b-373" target="ICw0-tsvLoCsqjR65B9b-374">
          <mxGeometry width="50" height="50" relative="1" as="geometry">
            <mxPoint x="2330" y="1090" as="sourcePoint" />
            <mxPoint x="2380" y="1040" as="targetPoint" />
          </mxGeometry>
        </mxCell>
        <mxCell id="ICw0-tsvLoCsqjR65B9b-379" value="" style="endArrow=none;html=1;rounded=0;exitX=0.75;exitY=1;exitDx=0;exitDy=0;entryX=0.5;entryY=0;entryDx=0;entryDy=0;" edge="1" parent="1" source="ICw0-tsvLoCsqjR65B9b-373" target="ICw0-tsvLoCsqjR65B9b-375">
          <mxGeometry width="50" height="50" relative="1" as="geometry">
            <mxPoint x="2330" y="1090" as="sourcePoint" />
            <mxPoint x="2380" y="1040" as="targetPoint" />
          </mxGeometry>
        </mxCell>
        <mxCell id="ICw0-tsvLoCsqjR65B9b-380" value="" style="endArrow=none;html=1;rounded=0;exitX=0.25;exitY=1;exitDx=0;exitDy=0;entryX=1;entryY=0;entryDx=0;entryDy=0;" edge="1" parent="1" source="ICw0-tsvLoCsqjR65B9b-373" target="ICw0-tsvLoCsqjR65B9b-376">
          <mxGeometry width="50" height="50" relative="1" as="geometry">
            <mxPoint x="2330" y="1090" as="sourcePoint" />
            <mxPoint x="2380" y="1040" as="targetPoint" />
          </mxGeometry>
        </mxCell>
        <mxCell id="ICw0-tsvLoCsqjR65B9b-381" value="" style="endArrow=none;html=1;rounded=0;exitX=0;exitY=0.25;exitDx=0;exitDy=0;entryX=1;entryY=0.5;entryDx=0;entryDy=0;" edge="1" parent="1" source="ICw0-tsvLoCsqjR65B9b-373" target="ICw0-tsvLoCsqjR65B9b-377">
          <mxGeometry width="50" height="50" relative="1" as="geometry">
            <mxPoint x="2330" y="1090" as="sourcePoint" />
            <mxPoint x="2380" y="1040" as="targetPoint" />
          </mxGeometry>
        </mxCell>
        <mxCell id="ICw0-tsvLoCsqjR65B9b-386" value="" style="edgeStyle=orthogonalEdgeStyle;rounded=0;orthogonalLoop=1;jettySize=auto;html=1;endArrow=none;endFill=0;" edge="1" parent="1" source="ICw0-tsvLoCsqjR65B9b-382" target="ICw0-tsvLoCsqjR65B9b-383">
          <mxGeometry relative="1" as="geometry" />
        </mxCell>
        <mxCell id="ICw0-tsvLoCsqjR65B9b-382" value="support" style="rounded=1;arcSize=10;whiteSpace=wrap;html=1;align=center;fillColor=#f8cecc;strokeColor=#b85450;" vertex="1" parent="1">
          <mxGeometry x="2100" y="720" width="100" height="40" as="geometry" />
        </mxCell>
        <mxCell id="ICw0-tsvLoCsqjR65B9b-385" style="edgeStyle=orthogonalEdgeStyle;rounded=0;orthogonalLoop=1;jettySize=auto;html=1;exitX=0.5;exitY=1;exitDx=0;exitDy=0;entryX=0.5;entryY=0;entryDx=0;entryDy=0;endArrow=ERmany;endFill=0;" edge="1" parent="1" source="ICw0-tsvLoCsqjR65B9b-383" target="ICw0-tsvLoCsqjR65B9b-373">
          <mxGeometry relative="1" as="geometry" />
        </mxCell>
        <mxCell id="ICw0-tsvLoCsqjR65B9b-383" value="examine" style="shape=rhombus;perimeter=rhombusPerimeter;whiteSpace=wrap;html=1;align=center;" vertex="1" parent="1">
          <mxGeometry x="2105" y="810" width="90" height="40" as="geometry" />
        </mxCell>
        <mxCell id="ICw0-tsvLoCsqjR65B9b-388" style="edgeStyle=orthogonalEdgeStyle;rounded=0;orthogonalLoop=1;jettySize=auto;html=1;entryX=0.75;entryY=0;entryDx=0;entryDy=0;endArrow=none;endFill=0;" edge="1" parent="1" source="ICw0-tsvLoCsqjR65B9b-387" target="ICw0-tsvLoCsqjR65B9b-319">
          <mxGeometry relative="1" as="geometry" />
        </mxCell>
        <mxCell id="ICw0-tsvLoCsqjR65B9b-387" value="name" style="ellipse;whiteSpace=wrap;html=1;align=center;" vertex="1" parent="1">
          <mxGeometry x="1960" y="1270" width="100" height="40" as="geometry" />
        </mxCell>
        <mxCell id="ICw0-tsvLoCsqjR65B9b-390" value="" style="edgeStyle=orthogonalEdgeStyle;rounded=0;orthogonalLoop=1;jettySize=auto;html=1;endArrow=none;endFill=0;" edge="1" parent="1" source="ICw0-tsvLoCsqjR65B9b-389" target="ICw0-tsvLoCsqjR65B9b-319">
          <mxGeometry relative="1" as="geometry" />
        </mxCell>
        <mxCell id="ICw0-tsvLoCsqjR65B9b-389" value="id" style="ellipse;whiteSpace=wrap;html=1;align=center;" vertex="1" parent="1">
          <mxGeometry x="1960" y="1330" width="100" height="40" as="geometry" />
        </mxCell>
        <mxCell id="ICw0-tsvLoCsqjR65B9b-392" style="edgeStyle=orthogonalEdgeStyle;rounded=0;orthogonalLoop=1;jettySize=auto;html=1;exitX=1;exitY=0.5;exitDx=0;exitDy=0;entryX=0;entryY=0.25;entryDx=0;entryDy=0;endArrow=none;endFill=0;" edge="1" parent="1" source="ICw0-tsvLoCsqjR65B9b-391" target="ICw0-tsvLoCsqjR65B9b-270">
          <mxGeometry relative="1" as="geometry" />
        </mxCell>
        <mxCell id="ICw0-tsvLoCsqjR65B9b-391" value="terminal_id" style="ellipse;whiteSpace=wrap;html=1;align=center;fontStyle=4;" vertex="1" parent="1">
          <mxGeometry x="330" y="1510" width="100" height="40" as="geometry" />
        </mxCell>
        <mxCell id="ICw0-tsvLoCsqjR65B9b-393" value="name" style="ellipse;whiteSpace=wrap;html=1;align=center;" vertex="1" parent="1">
          <mxGeometry x="325" y="1570" width="100" height="40" as="geometry" />
        </mxCell>
        <mxCell id="ICw0-tsvLoCsqjR65B9b-395" value="&lt;u&gt;survey_id&lt;/u&gt;" style="ellipse;whiteSpace=wrap;html=1;align=center;" vertex="1" parent="1">
          <mxGeometry x="167.5" y="1200" width="100" height="40" as="geometry" />
        </mxCell>
        <mxCell id="ICw0-tsvLoCsqjR65B9b-399" style="edgeStyle=orthogonalEdgeStyle;rounded=0;orthogonalLoop=1;jettySize=auto;html=1;exitX=1;exitY=0.5;exitDx=0;exitDy=0;entryX=0;entryY=0.5;entryDx=0;entryDy=0;endArrow=none;endFill=0;" edge="1" parent="1" source="ICw0-tsvLoCsqjR65B9b-397" target="ICw0-tsvLoCsqjR65B9b-398">
          <mxGeometry relative="1" as="geometry" />
        </mxCell>
        <mxCell id="ICw0-tsvLoCsqjR65B9b-397" value="user" style="rounded=1;arcSize=10;whiteSpace=wrap;html=1;align=center;fillColor=#f8cecc;strokeColor=#b85450;" vertex="1" parent="1">
          <mxGeometry x="1740" y="910" width="100" height="40" as="geometry" />
        </mxCell>
        <mxCell id="ICw0-tsvLoCsqjR65B9b-400" style="edgeStyle=orthogonalEdgeStyle;rounded=0;orthogonalLoop=1;jettySize=auto;html=1;exitX=1;exitY=0.5;exitDx=0;exitDy=0;entryX=0;entryY=0.5;entryDx=0;entryDy=0;endArrow=ERmany;endFill=0;" edge="1" parent="1" source="ICw0-tsvLoCsqjR65B9b-398" target="ICw0-tsvLoCsqjR65B9b-373">
          <mxGeometry relative="1" as="geometry" />
        </mxCell>
        <mxCell id="ICw0-tsvLoCsqjR65B9b-398" value="send" style="shape=rhombus;perimeter=rhombusPerimeter;whiteSpace=wrap;html=1;align=center;" vertex="1" parent="1">
          <mxGeometry x="1910" y="910" width="90" height="40" as="geometry" />
        </mxCell>
        <mxCell id="ICw0-tsvLoCsqjR65B9b-411" style="edgeStyle=orthogonalEdgeStyle;rounded=0;orthogonalLoop=1;jettySize=auto;html=1;exitX=1;exitY=0.5;exitDx=0;exitDy=0;entryX=0;entryY=0.5;entryDx=0;entryDy=0;endArrow=none;endFill=0;" edge="1" parent="1" source="ICw0-tsvLoCsqjR65B9b-401" target="ICw0-tsvLoCsqjR65B9b-410">
          <mxGeometry relative="1" as="geometry" />
        </mxCell>
        <mxCell id="ICw0-tsvLoCsqjR65B9b-401" value="SMS" style="rounded=1;whiteSpace=wrap;html=1;" vertex="1" parent="1">
          <mxGeometry x="2560" y="1160" width="120" height="60" as="geometry" />
        </mxCell>
        <mxCell id="ICw0-tsvLoCsqjR65B9b-402" value="type" style="ellipse;whiteSpace=wrap;html=1;" vertex="1" parent="1">
          <mxGeometry x="2460" y="1050" width="120" height="80" as="geometry" />
        </mxCell>
        <mxCell id="ICw0-tsvLoCsqjR65B9b-403" value="content" style="ellipse;whiteSpace=wrap;html=1;" vertex="1" parent="1">
          <mxGeometry x="2665" y="1060" width="120" height="80" as="geometry" />
        </mxCell>
        <mxCell id="ICw0-tsvLoCsqjR65B9b-406" value="" style="endArrow=none;html=1;rounded=0;entryX=0.25;entryY=0;entryDx=0;entryDy=0;exitX=1;exitY=1;exitDx=0;exitDy=0;" edge="1" parent="1" source="ICw0-tsvLoCsqjR65B9b-402">
          <mxGeometry width="50" height="50" relative="1" as="geometry">
            <mxPoint x="2380" y="1230" as="sourcePoint" />
            <mxPoint x="2587.5" y="1155" as="targetPoint" />
          </mxGeometry>
        </mxCell>
        <mxCell id="ICw0-tsvLoCsqjR65B9b-408" value="" style="endArrow=none;html=1;rounded=0;exitX=0;exitY=1;exitDx=0;exitDy=0;" edge="1" parent="1" source="ICw0-tsvLoCsqjR65B9b-403">
          <mxGeometry width="50" height="50" relative="1" as="geometry">
            <mxPoint x="2380" y="1230" as="sourcePoint" />
            <mxPoint x="2653" y="1155" as="targetPoint" />
          </mxGeometry>
        </mxCell>
        <mxCell id="ICw0-tsvLoCsqjR65B9b-415" style="edgeStyle=orthogonalEdgeStyle;rounded=0;orthogonalLoop=1;jettySize=auto;html=1;exitX=0.5;exitY=1;exitDx=0;exitDy=0;entryX=0.5;entryY=0;entryDx=0;entryDy=0;endArrow=none;endFill=0;" edge="1" parent="1" source="ICw0-tsvLoCsqjR65B9b-409" target="ICw0-tsvLoCsqjR65B9b-412">
          <mxGeometry relative="1" as="geometry" />
        </mxCell>
        <mxCell id="ICw0-tsvLoCsqjR65B9b-409" value="support" style="rounded=1;arcSize=10;whiteSpace=wrap;html=1;align=center;fillColor=#f8cecc;strokeColor=#b85450;" vertex="1" parent="1">
          <mxGeometry x="2580" y="960" width="100" height="40" as="geometry" />
        </mxCell>
        <mxCell id="ICw0-tsvLoCsqjR65B9b-410" value="&lt;u&gt;SMS_id&lt;/u&gt;" style="ellipse;whiteSpace=wrap;html=1;" vertex="1" parent="1">
          <mxGeometry x="2720" y="1150" width="120" height="80" as="geometry" />
        </mxCell>
        <mxCell id="ICw0-tsvLoCsqjR65B9b-414" style="edgeStyle=orthogonalEdgeStyle;rounded=0;orthogonalLoop=1;jettySize=auto;html=1;exitX=0.5;exitY=1;exitDx=0;exitDy=0;entryX=0.5;entryY=0;entryDx=0;entryDy=0;endArrow=ERmany;endFill=0;" edge="1" parent="1" source="ICw0-tsvLoCsqjR65B9b-412" target="ICw0-tsvLoCsqjR65B9b-401">
          <mxGeometry relative="1" as="geometry" />
        </mxCell>
        <mxCell id="ICw0-tsvLoCsqjR65B9b-412" value="send" style="shape=rhombus;perimeter=rhombusPerimeter;whiteSpace=wrap;html=1;align=center;" vertex="1" parent="1">
          <mxGeometry x="2580" y="1050" width="90" height="30" as="geometry" />
        </mxCell>
        <mxCell id="ICw0-tsvLoCsqjR65B9b-418" style="edgeStyle=orthogonalEdgeStyle;rounded=0;orthogonalLoop=1;jettySize=auto;html=1;exitX=1;exitY=0.5;exitDx=0;exitDy=0;entryX=0;entryY=0.5;entryDx=0;entryDy=0;endArrow=none;endFill=0;" edge="1" parent="1" source="ICw0-tsvLoCsqjR65B9b-416" target="ICw0-tsvLoCsqjR65B9b-417">
          <mxGeometry relative="1" as="geometry" />
        </mxCell>
        <mxCell id="ICw0-tsvLoCsqjR65B9b-416" value="customer" style="rounded=1;arcSize=10;whiteSpace=wrap;html=1;align=center;fillColor=#f8cecc;strokeColor=#b85450;" vertex="1" parent="1">
          <mxGeometry x="2290" y="1165" width="100" height="40" as="geometry" />
        </mxCell>
        <mxCell id="ICw0-tsvLoCsqjR65B9b-417" value="receive" style="shape=rhombus;perimeter=rhombusPerimeter;whiteSpace=wrap;html=1;align=center;" vertex="1" parent="1">
          <mxGeometry x="2420" y="1170" width="90" height="30" as="geometry" />
        </mxCell>
        <mxCell id="ICw0-tsvLoCsqjR65B9b-419" style="edgeStyle=orthogonalEdgeStyle;rounded=0;orthogonalLoop=1;jettySize=auto;html=1;exitX=1;exitY=0.5;exitDx=0;exitDy=0;entryX=0.012;entryY=0.425;entryDx=0;entryDy=0;entryPerimeter=0;endArrow=ERmany;endFill=0;" edge="1" parent="1" source="ICw0-tsvLoCsqjR65B9b-417" target="ICw0-tsvLoCsqjR65B9b-401">
          <mxGeometry relative="1" as="geometry" />
        </mxCell>
        <mxCell id="ICw0-tsvLoCsqjR65B9b-420" value="search_history" style="rounded=1;whiteSpace=wrap;html=1;" vertex="1" parent="1">
          <mxGeometry x="2675" y="1360" width="120" height="60" as="geometry" />
        </mxCell>
        <mxCell id="ICw0-tsvLoCsqjR65B9b-423" value="" style="rounded=1;whiteSpace=wrap;html=1;fillColor=none;" vertex="1" parent="1">
          <mxGeometry x="2670" y="1355" width="130" height="70" as="geometry" />
        </mxCell>
        <mxCell id="ICw0-tsvLoCsqjR65B9b-435" style="edgeStyle=orthogonalEdgeStyle;rounded=0;orthogonalLoop=1;jettySize=auto;html=1;exitX=0.5;exitY=0;exitDx=0;exitDy=0;entryX=0.5;entryY=1;entryDx=0;entryDy=0;endArrow=none;endFill=0;" edge="1" parent="1" source="ICw0-tsvLoCsqjR65B9b-426" target="ICw0-tsvLoCsqjR65B9b-434">
          <mxGeometry relative="1" as="geometry" />
        </mxCell>
        <mxCell id="ICw0-tsvLoCsqjR65B9b-426" value="trip" style="rounded=1;arcSize=10;whiteSpace=wrap;html=1;align=center;fillColor=#f8cecc;strokeColor=#b85450;" vertex="1" parent="1">
          <mxGeometry x="2680" y="1515" width="100" height="40" as="geometry" />
        </mxCell>
        <mxCell id="ICw0-tsvLoCsqjR65B9b-432" style="edgeStyle=orthogonalEdgeStyle;rounded=0;orthogonalLoop=1;jettySize=auto;html=1;exitX=1;exitY=0.5;exitDx=0;exitDy=0;entryX=0;entryY=0.5;entryDx=0;entryDy=0;endArrow=none;endFill=0;" edge="1" parent="1" source="ICw0-tsvLoCsqjR65B9b-427" target="ICw0-tsvLoCsqjR65B9b-431">
          <mxGeometry relative="1" as="geometry" />
        </mxCell>
        <mxCell id="ICw0-tsvLoCsqjR65B9b-427" value="customer" style="rounded=1;arcSize=10;whiteSpace=wrap;html=1;align=center;fillColor=#f8cecc;strokeColor=#b85450;" vertex="1" parent="1">
          <mxGeometry x="2370" y="1370" width="100" height="40" as="geometry" />
        </mxCell>
        <mxCell id="ICw0-tsvLoCsqjR65B9b-433" style="edgeStyle=orthogonalEdgeStyle;rounded=0;orthogonalLoop=1;jettySize=auto;html=1;exitX=1;exitY=0.5;exitDx=0;exitDy=0;entryX=0;entryY=0.5;entryDx=0;entryDy=0;endArrow=ERmany;endFill=0;" edge="1" parent="1" source="ICw0-tsvLoCsqjR65B9b-431" target="ICw0-tsvLoCsqjR65B9b-423">
          <mxGeometry relative="1" as="geometry" />
        </mxCell>
        <mxCell id="ICw0-tsvLoCsqjR65B9b-431" value="enroll" style="shape=rhombus;double=1;perimeter=rhombusPerimeter;whiteSpace=wrap;html=1;align=center;" vertex="1" parent="1">
          <mxGeometry x="2520" y="1370" width="90" height="40" as="geometry" />
        </mxCell>
        <mxCell id="ICw0-tsvLoCsqjR65B9b-434" value="enroll" style="shape=rhombus;double=1;perimeter=rhombusPerimeter;whiteSpace=wrap;html=1;align=center;" vertex="1" parent="1">
          <mxGeometry x="2685" y="1450" width="90" height="40" as="geometry" />
        </mxCell>
        <mxCell id="ICw0-tsvLoCsqjR65B9b-436" style="edgeStyle=orthogonalEdgeStyle;rounded=0;orthogonalLoop=1;jettySize=auto;html=1;exitX=0.5;exitY=0;exitDx=0;exitDy=0;entryX=0.454;entryY=0.987;entryDx=0;entryDy=0;entryPerimeter=0;endArrow=ERmany;endFill=0;" edge="1" parent="1" source="ICw0-tsvLoCsqjR65B9b-434" target="ICw0-tsvLoCsqjR65B9b-423">
          <mxGeometry relative="1" as="geometry" />
        </mxCell>
      </root>
    </mxGraphModel>
  </diagram>
</mxfile>
